G04 EAGLE Gerber RS-274X export*
G75*
%MOMM*%
%FSLAX34Y34*%
%LPD*%
%INTop Copper*%
%IPPOS*%
%AMOC8*
5,1,8,0,0,1.08239X$1,22.5*%
G01*
G04 Define Apertures*
%ADD10C,0.254000*%
%ADD11R,1.524000X1.524000*%
%ADD12P,1.649562X8X22.500000*%
%ADD13R,1.200000X1.400000*%
%ADD14R,3.500000X1.400000*%
%ADD15C,1.879600*%
%ADD16P,1.319650X8X202.500000*%
%ADD17P,1.319650X8X22.500000*%
%ADD18R,2.032000X0.660400*%
%ADD19P,1.319650X8X292.500000*%
%ADD20C,1.981200*%
%ADD21P,1.319650X8X112.500000*%
%ADD22R,1.750000X0.650000*%
%ADD23C,2.000000*%
%ADD24C,0.812800*%
%ADD25C,0.710000*%
%ADD26C,0.406400*%
%ADD27C,0.300000*%
%ADD28C,0.304800*%
%ADD29C,0.910000*%
%ADD30C,0.508000*%
%ADD31C,0.609600*%
%ADD32C,1.270000*%
%ADD33C,0.810000*%
G36*
X440570Y547320D02*
X443285Y547320D01*
X448666Y541939D01*
X449329Y541499D01*
X450112Y541353D01*
X450889Y541524D01*
X451539Y541985D01*
X451957Y542662D01*
X451988Y542835D01*
X459473Y550320D01*
X469927Y550320D01*
X477429Y542819D01*
X477478Y542573D01*
X477929Y541917D01*
X478599Y541488D01*
X479384Y541354D01*
X480158Y541537D01*
X480734Y541939D01*
X486115Y547320D01*
X488830Y547320D01*
X488830Y536430D01*
X491370Y536430D01*
X491370Y547320D01*
X494085Y547320D01*
X499466Y541939D01*
X500129Y541499D01*
X500912Y541353D01*
X501689Y541524D01*
X502339Y541985D01*
X502757Y542662D01*
X502788Y542835D01*
X510273Y550320D01*
X520727Y550320D01*
X526786Y544262D01*
X527449Y543822D01*
X528232Y543676D01*
X529009Y543847D01*
X529614Y544262D01*
X535673Y550320D01*
X546127Y550320D01*
X552186Y544262D01*
X552849Y543822D01*
X553632Y543676D01*
X554409Y543847D01*
X555014Y544262D01*
X561073Y550320D01*
X571527Y550320D01*
X578920Y542927D01*
X578920Y542257D01*
X579078Y541477D01*
X579529Y540821D01*
X580199Y540392D01*
X580984Y540258D01*
X581758Y540442D01*
X582603Y541176D01*
X587513Y548817D01*
X590596Y551489D01*
X591082Y552119D01*
X591283Y552889D01*
X591168Y553677D01*
X590755Y554357D01*
X590109Y554823D01*
X589286Y555000D01*
X407021Y555000D01*
X406241Y554842D01*
X405584Y554392D01*
X405155Y553721D01*
X405022Y552936D01*
X405205Y552162D01*
X405607Y551586D01*
X405790Y551402D01*
X405806Y551364D01*
X406251Y550704D01*
X406918Y550270D01*
X407702Y550130D01*
X408478Y550307D01*
X408496Y550320D01*
X419127Y550320D01*
X426629Y542819D01*
X426678Y542573D01*
X427129Y541917D01*
X427799Y541488D01*
X428584Y541354D01*
X429358Y541537D01*
X429934Y541939D01*
X435315Y547320D01*
X438030Y547320D01*
X438030Y536430D01*
X440570Y536430D01*
X440570Y547320D01*
G37*
G36*
X135770Y547320D02*
X138485Y547320D01*
X143866Y541939D01*
X144529Y541499D01*
X145312Y541353D01*
X146089Y541524D01*
X146739Y541985D01*
X147157Y542662D01*
X147188Y542835D01*
X154673Y550320D01*
X165127Y550320D01*
X171186Y544262D01*
X171849Y543822D01*
X172632Y543676D01*
X173409Y543847D01*
X174014Y544262D01*
X180073Y550320D01*
X187899Y550320D01*
X188679Y550478D01*
X189313Y550906D01*
X189993Y551586D01*
X190433Y552249D01*
X190579Y553032D01*
X190408Y553809D01*
X189948Y554459D01*
X189270Y554877D01*
X188579Y555000D01*
X60714Y555000D01*
X59934Y554842D01*
X59277Y554392D01*
X58848Y553721D01*
X58715Y552936D01*
X58898Y552162D01*
X59404Y551489D01*
X62487Y548817D01*
X67398Y541176D01*
X67952Y540606D01*
X68686Y540297D01*
X69482Y540298D01*
X70214Y540610D01*
X70767Y541183D01*
X71080Y542257D01*
X71080Y542927D01*
X78473Y550320D01*
X88927Y550320D01*
X92914Y546334D01*
X93577Y545894D01*
X94328Y545748D01*
X98472Y545748D01*
X99252Y545906D01*
X99886Y546334D01*
X103873Y550320D01*
X114327Y550320D01*
X121829Y542819D01*
X121878Y542573D01*
X122329Y541917D01*
X122999Y541488D01*
X123784Y541354D01*
X124558Y541537D01*
X125134Y541939D01*
X130515Y547320D01*
X133230Y547320D01*
X133230Y536430D01*
X135770Y536430D01*
X135770Y547320D01*
G37*
G36*
X587758Y497158D02*
X588415Y497609D01*
X588844Y498279D01*
X588977Y499064D01*
X588794Y499838D01*
X588288Y500512D01*
X587513Y501183D01*
X581917Y509891D01*
X579839Y516967D01*
X579607Y517405D01*
X579623Y517504D01*
X579544Y517972D01*
X579000Y519824D01*
X579000Y527724D01*
X578842Y528504D01*
X578392Y529161D01*
X577721Y529590D01*
X576936Y529723D01*
X576162Y529540D01*
X575586Y529138D01*
X571419Y524972D01*
X571173Y524922D01*
X570517Y524472D01*
X570088Y523801D01*
X569954Y523016D01*
X570137Y522242D01*
X570539Y521666D01*
X575920Y516285D01*
X575920Y513570D01*
X565030Y513570D01*
X565030Y502680D01*
X562315Y502680D01*
X556934Y508061D01*
X556271Y508501D01*
X555488Y508647D01*
X554711Y508476D01*
X554061Y508015D01*
X553643Y507338D01*
X553520Y506647D01*
X553520Y506501D01*
X553678Y505721D01*
X554106Y505087D01*
X561607Y497586D01*
X562270Y497146D01*
X563021Y497000D01*
X586978Y497000D01*
X587758Y497158D01*
G37*
%LPC*%
G36*
X567570Y502680D02*
X567570Y511030D01*
X575920Y511030D01*
X575920Y508315D01*
X570285Y502680D01*
X567570Y502680D01*
G37*
%LPD*%
G36*
X392589Y488412D02*
X393239Y488872D01*
X393657Y489550D01*
X393780Y490241D01*
X393780Y500680D01*
X393622Y501460D01*
X393172Y502117D01*
X392501Y502546D01*
X391780Y502680D01*
X389770Y502680D01*
X389770Y513570D01*
X387230Y513570D01*
X387230Y502680D01*
X384312Y502680D01*
X384251Y502721D01*
X383468Y502867D01*
X382691Y502696D01*
X382041Y502235D01*
X381623Y501558D01*
X381500Y500867D01*
X381500Y498521D01*
X381658Y497741D01*
X382086Y497107D01*
X390366Y488827D01*
X391029Y488387D01*
X391812Y488241D01*
X392589Y488412D01*
G37*
G36*
X497890Y215158D02*
X498546Y215609D01*
X498975Y216279D01*
X499109Y217064D01*
X498926Y217838D01*
X498524Y218414D01*
X497794Y219144D01*
X495602Y224436D01*
X495602Y230164D01*
X497794Y235456D01*
X500924Y238586D01*
X501364Y239249D01*
X501509Y240032D01*
X501339Y240809D01*
X500924Y241414D01*
X497794Y244544D01*
X495602Y249836D01*
X495602Y255564D01*
X497794Y260856D01*
X501844Y264906D01*
X501965Y264956D01*
X502625Y265401D01*
X503060Y266068D01*
X503199Y266852D01*
X503022Y267628D01*
X502557Y268273D01*
X501876Y268686D01*
X501270Y268792D01*
X501270Y275630D01*
X508096Y275630D01*
X508096Y273547D01*
X504876Y270327D01*
X504437Y269663D01*
X504291Y268881D01*
X504461Y268103D01*
X504922Y267454D01*
X505599Y267036D01*
X506386Y266915D01*
X507056Y267065D01*
X507136Y267098D01*
X512989Y267098D01*
X513534Y266992D01*
X514313Y267156D01*
X514933Y267577D01*
X515367Y268012D01*
X515807Y268676D01*
X515953Y269458D01*
X515782Y270236D01*
X515367Y270841D01*
X513904Y272304D01*
X513904Y281496D01*
X520404Y287996D01*
X529596Y287996D01*
X536086Y281506D01*
X536749Y281067D01*
X537532Y280921D01*
X538309Y281092D01*
X538914Y281506D01*
X545404Y287996D01*
X554596Y287996D01*
X561086Y281506D01*
X561749Y281067D01*
X562532Y280921D01*
X563309Y281092D01*
X563914Y281506D01*
X567914Y285506D01*
X568354Y286170D01*
X568500Y286921D01*
X568500Y291293D01*
X569490Y293682D01*
X581318Y305510D01*
X583707Y306500D01*
X596479Y306500D01*
X597259Y306658D01*
X597893Y307086D01*
X622914Y332107D01*
X623354Y332770D01*
X623500Y333521D01*
X623500Y385411D01*
X623342Y386191D01*
X622892Y386848D01*
X622221Y387277D01*
X621436Y387410D01*
X620662Y387227D01*
X620020Y386756D01*
X619652Y386177D01*
X617716Y381503D01*
X613497Y377284D01*
X607984Y375000D01*
X602016Y375000D01*
X596503Y377284D01*
X592284Y381503D01*
X590000Y387016D01*
X590000Y392984D01*
X592284Y398497D01*
X596503Y402716D01*
X602016Y405000D01*
X607984Y405000D01*
X613497Y402716D01*
X617716Y398497D01*
X619652Y393823D01*
X620097Y393163D01*
X620764Y392729D01*
X621548Y392589D01*
X622324Y392766D01*
X622969Y393232D01*
X623382Y393912D01*
X623500Y394589D01*
X623500Y455411D01*
X623342Y456191D01*
X622892Y456848D01*
X622221Y457277D01*
X621436Y457410D01*
X620662Y457227D01*
X620020Y456756D01*
X619652Y456177D01*
X617716Y451503D01*
X613497Y447284D01*
X607984Y445000D01*
X602016Y445000D01*
X596503Y447284D01*
X592284Y451503D01*
X590000Y457016D01*
X590000Y462984D01*
X592284Y468497D01*
X596503Y472716D01*
X601177Y474652D01*
X601837Y475097D01*
X602271Y475764D01*
X602411Y476548D01*
X602234Y477324D01*
X601768Y477969D01*
X601088Y478382D01*
X600411Y478500D01*
X570121Y478500D01*
X569340Y478342D01*
X568684Y477892D01*
X568255Y477221D01*
X568122Y476436D01*
X568305Y475662D01*
X568706Y475086D01*
X571096Y472696D01*
X571096Y463504D01*
X564596Y457004D01*
X555404Y457004D01*
X549514Y462894D01*
X548851Y463333D01*
X548068Y463479D01*
X547291Y463308D01*
X546686Y462894D01*
X542696Y458904D01*
X542046Y458904D01*
X541265Y458746D01*
X540609Y458296D01*
X540180Y457625D01*
X540047Y456840D01*
X540230Y456066D01*
X540631Y455490D01*
X540989Y455132D01*
X541750Y453295D01*
X541750Y445890D01*
X541908Y445110D01*
X542359Y444453D01*
X543029Y444024D01*
X543750Y443890D01*
X555150Y443890D01*
X557921Y442742D01*
X566392Y434271D01*
X567540Y431500D01*
X567540Y400881D01*
X567698Y400100D01*
X568126Y399466D01*
X571096Y396496D01*
X571096Y387304D01*
X564596Y380804D01*
X555404Y380804D01*
X551028Y385179D01*
X550365Y385619D01*
X549582Y385765D01*
X548805Y385594D01*
X548156Y385134D01*
X547737Y384456D01*
X547627Y383835D01*
X541114Y377322D01*
X531922Y377322D01*
X525422Y383822D01*
X525422Y393014D01*
X531922Y399514D01*
X541114Y399514D01*
X545490Y395139D01*
X546153Y394699D01*
X546936Y394553D01*
X547713Y394724D01*
X548363Y395185D01*
X548781Y395862D01*
X548892Y396484D01*
X551874Y399466D01*
X552314Y400130D01*
X552460Y400881D01*
X552460Y415301D01*
X552302Y416081D01*
X551852Y416738D01*
X551181Y417167D01*
X550396Y417300D01*
X549695Y417149D01*
X546800Y415950D01*
X543200Y415950D01*
X543181Y415958D01*
X542416Y416110D01*
X540750Y416110D01*
X539970Y415952D01*
X539313Y415502D01*
X538884Y414831D01*
X538750Y414110D01*
X538750Y412220D01*
X517250Y412220D01*
X517250Y414501D01*
X517092Y415281D01*
X516664Y415915D01*
X515011Y417568D01*
X514250Y419405D01*
X514250Y427895D01*
X514805Y429235D01*
X514957Y430016D01*
X514805Y430765D01*
X514250Y432105D01*
X514250Y440550D01*
X514092Y441330D01*
X513642Y441987D01*
X512971Y442416D01*
X512250Y442550D01*
X509657Y442550D01*
X507268Y443540D01*
X500393Y450414D01*
X499730Y450854D01*
X498979Y451000D01*
X487750Y451000D01*
X486970Y450842D01*
X486313Y450392D01*
X485884Y449721D01*
X485750Y449000D01*
X485750Y444805D01*
X485195Y443465D01*
X485043Y442684D01*
X485195Y441935D01*
X485750Y440595D01*
X485750Y432105D01*
X485195Y430765D01*
X485043Y429984D01*
X485195Y429235D01*
X485750Y427895D01*
X485750Y419405D01*
X485195Y418065D01*
X485043Y417284D01*
X485195Y416535D01*
X485750Y415195D01*
X485750Y406705D01*
X484989Y404868D01*
X483582Y403461D01*
X481745Y402700D01*
X462255Y402700D01*
X460418Y403461D01*
X460015Y403864D01*
X459351Y404304D01*
X458601Y404450D01*
X452757Y404450D01*
X450861Y405235D01*
X450080Y405387D01*
X449301Y405223D01*
X448731Y404825D01*
X448731Y405870D01*
X431904Y405870D01*
X431904Y406500D01*
X431746Y407280D01*
X431296Y407937D01*
X430625Y408366D01*
X429904Y408500D01*
X413707Y408500D01*
X411318Y409490D01*
X399034Y421773D01*
X398371Y422213D01*
X397588Y422359D01*
X396811Y422188D01*
X396161Y421728D01*
X395743Y421050D01*
X395620Y420359D01*
X395620Y297798D01*
X394627Y295401D01*
X385596Y286369D01*
X383198Y285376D01*
X360572Y285376D01*
X359791Y285218D01*
X359157Y284790D01*
X358726Y284359D01*
X356889Y283598D01*
X334579Y283598D01*
X332742Y284359D01*
X331335Y285766D01*
X330574Y287603D01*
X330574Y296197D01*
X331108Y297485D01*
X331260Y298266D01*
X331108Y299015D01*
X330574Y300303D01*
X330574Y308897D01*
X331108Y310185D01*
X331260Y310966D01*
X331108Y311715D01*
X330574Y313003D01*
X330574Y321597D01*
X331108Y322885D01*
X331260Y323666D01*
X331108Y324415D01*
X330574Y325703D01*
X330574Y334297D01*
X331108Y335585D01*
X331260Y336366D01*
X331108Y337115D01*
X330574Y338403D01*
X330574Y346997D01*
X331108Y348285D01*
X331260Y349066D01*
X331108Y349815D01*
X330574Y351103D01*
X330574Y359697D01*
X331108Y360985D01*
X331260Y361766D01*
X331108Y362515D01*
X330574Y363803D01*
X330574Y372397D01*
X331335Y374234D01*
X332742Y375641D01*
X334579Y376402D01*
X351347Y376402D01*
X352127Y376560D01*
X352761Y376988D01*
X357890Y382117D01*
X358330Y382780D01*
X358476Y383531D01*
X358476Y383969D01*
X358318Y384749D01*
X357890Y385383D01*
X356217Y387057D01*
X355553Y387496D01*
X354803Y387643D01*
X349563Y387643D01*
X348783Y387484D01*
X348149Y387057D01*
X344996Y383904D01*
X335804Y383904D01*
X329304Y390404D01*
X329304Y399596D01*
X335804Y406096D01*
X344996Y406096D01*
X349816Y401276D01*
X350479Y400837D01*
X351230Y400691D01*
X359631Y400691D01*
X362029Y399698D01*
X368062Y393665D01*
X368725Y393225D01*
X369508Y393079D01*
X370285Y393250D01*
X370935Y393710D01*
X371353Y394388D01*
X371476Y395079D01*
X371476Y460641D01*
X371318Y461421D01*
X370890Y462055D01*
X360495Y472450D01*
X359831Y472890D01*
X359081Y473036D01*
X284142Y473036D01*
X281745Y474029D01*
X276816Y478958D01*
X276152Y479397D01*
X275370Y479543D01*
X274592Y479372D01*
X273943Y478912D01*
X273554Y478309D01*
X272248Y475157D01*
X269843Y472752D01*
X266701Y471450D01*
X264576Y471450D01*
X263796Y471292D01*
X263139Y470842D01*
X262710Y470171D01*
X262577Y469386D01*
X262728Y468685D01*
X263550Y466701D01*
X263550Y463299D01*
X262248Y460157D01*
X262110Y460018D01*
X261670Y459355D01*
X261524Y458604D01*
X261524Y380550D01*
X261682Y379770D01*
X262133Y379113D01*
X262803Y378684D01*
X263524Y378550D01*
X266701Y378550D01*
X269843Y377248D01*
X270454Y376638D01*
X271118Y376198D01*
X271900Y376052D01*
X272634Y376204D01*
X273111Y376402D01*
X295421Y376402D01*
X297258Y375641D01*
X298665Y374234D01*
X299426Y372397D01*
X299426Y363803D01*
X298892Y362515D01*
X298740Y361734D01*
X298892Y360985D01*
X299426Y359697D01*
X299426Y351103D01*
X298892Y349815D01*
X298740Y349034D01*
X298892Y348285D01*
X299426Y346997D01*
X299426Y338403D01*
X298892Y337115D01*
X298740Y336334D01*
X298892Y335585D01*
X299426Y334297D01*
X299426Y325703D01*
X298892Y324415D01*
X298740Y323634D01*
X298892Y322885D01*
X299426Y321597D01*
X299426Y313003D01*
X298892Y311715D01*
X298740Y310934D01*
X298892Y310185D01*
X299426Y308897D01*
X299426Y300303D01*
X298665Y298466D01*
X297012Y296813D01*
X296572Y296149D01*
X296426Y295399D01*
X296426Y293170D01*
X272106Y293170D01*
X272106Y295399D01*
X271948Y296179D01*
X271520Y296813D01*
X270843Y297490D01*
X270179Y297930D01*
X269429Y298076D01*
X249102Y298076D01*
X246705Y299069D01*
X229469Y316305D01*
X228476Y318702D01*
X228476Y456556D01*
X228318Y457336D01*
X227868Y457993D01*
X227197Y458422D01*
X226412Y458555D01*
X225638Y458372D01*
X225062Y457970D01*
X224843Y457752D01*
X221701Y456450D01*
X218299Y456450D01*
X215157Y457752D01*
X212752Y460157D01*
X211450Y463299D01*
X211450Y463495D01*
X211292Y464275D01*
X210864Y464909D01*
X205169Y470605D01*
X204176Y473002D01*
X204176Y500148D01*
X204018Y500928D01*
X203590Y501562D01*
X197972Y507181D01*
X197922Y507427D01*
X197472Y508083D01*
X196801Y508512D01*
X196016Y508646D01*
X195242Y508463D01*
X194666Y508061D01*
X189285Y502680D01*
X186570Y502680D01*
X186570Y513570D01*
X184030Y513570D01*
X184030Y502680D01*
X181315Y502680D01*
X175934Y508061D01*
X175271Y508501D01*
X174488Y508647D01*
X173711Y508476D01*
X173061Y508015D01*
X172643Y507338D01*
X172612Y507165D01*
X165127Y499680D01*
X154673Y499680D01*
X148614Y505738D01*
X147951Y506178D01*
X147168Y506324D01*
X146391Y506153D01*
X145786Y505738D01*
X139727Y499680D01*
X131300Y499680D01*
X130520Y499522D01*
X129863Y499072D01*
X129434Y498401D01*
X129300Y497680D01*
X129300Y489692D01*
X129458Y488912D01*
X129886Y488277D01*
X135037Y483126D01*
X135701Y482686D01*
X136452Y482540D01*
X159119Y482540D01*
X159900Y482698D01*
X160534Y483126D01*
X163504Y486096D01*
X172696Y486096D01*
X179196Y479596D01*
X179196Y475396D01*
X179354Y474616D01*
X179782Y473981D01*
X191392Y462371D01*
X192540Y459600D01*
X192540Y384158D01*
X192698Y383378D01*
X193149Y382721D01*
X193819Y382292D01*
X194604Y382159D01*
X195305Y382310D01*
X198299Y383550D01*
X201701Y383550D01*
X204843Y382248D01*
X207248Y379843D01*
X208550Y376701D01*
X208550Y373299D01*
X207184Y370002D01*
X207032Y369237D01*
X207032Y290763D01*
X207184Y289998D01*
X208550Y286701D01*
X208550Y284032D01*
X208708Y283252D01*
X209159Y282595D01*
X209829Y282166D01*
X210550Y282032D01*
X229099Y282032D01*
X231683Y280961D01*
X245067Y267577D01*
X245731Y267138D01*
X246513Y266992D01*
X247025Y267098D01*
X252864Y267098D01*
X258156Y264906D01*
X262206Y260856D01*
X264398Y255564D01*
X264398Y249836D01*
X262206Y244544D01*
X259076Y241414D01*
X258636Y240751D01*
X258491Y239968D01*
X258661Y239191D01*
X259076Y238586D01*
X262206Y235456D01*
X263612Y232061D01*
X264057Y231401D01*
X264724Y230967D01*
X265508Y230827D01*
X266284Y231004D01*
X266929Y231470D01*
X267342Y232150D01*
X267460Y232826D01*
X267460Y240500D01*
X268608Y243271D01*
X282422Y257085D01*
X282560Y257286D01*
X283721Y258386D01*
X283760Y258424D01*
X284805Y259468D01*
X286184Y259996D01*
X286235Y260016D01*
X287095Y260372D01*
X287744Y260806D01*
X291844Y264906D01*
X297136Y267098D01*
X302864Y267098D01*
X308156Y264906D01*
X312206Y260856D01*
X314398Y255564D01*
X314398Y249836D01*
X312206Y244544D01*
X309076Y241414D01*
X308636Y240751D01*
X308491Y239968D01*
X308661Y239191D01*
X309076Y238586D01*
X312236Y235426D01*
X312900Y234986D01*
X313650Y234840D01*
X336350Y234840D01*
X337130Y234998D01*
X337764Y235426D01*
X340924Y238586D01*
X341364Y239249D01*
X341509Y240032D01*
X341339Y240809D01*
X340924Y241414D01*
X337794Y244544D01*
X335602Y249836D01*
X335602Y255564D01*
X337794Y260856D01*
X341844Y264906D01*
X347136Y267098D01*
X352864Y267098D01*
X358156Y264906D01*
X362206Y260856D01*
X364398Y255564D01*
X364398Y251375D01*
X364556Y250595D01*
X364984Y249961D01*
X372574Y242370D01*
X373238Y241931D01*
X374021Y241785D01*
X374798Y241956D01*
X375403Y242370D01*
X385016Y251984D01*
X385456Y252647D01*
X385602Y253398D01*
X385602Y255564D01*
X387794Y260856D01*
X391844Y264906D01*
X397136Y267098D01*
X402864Y267098D01*
X408156Y264906D01*
X412206Y260856D01*
X414398Y255564D01*
X414398Y249836D01*
X412206Y244544D01*
X409076Y241414D01*
X408636Y240751D01*
X408491Y239968D01*
X408661Y239191D01*
X409076Y238586D01*
X412206Y235456D01*
X413956Y231230D01*
X414401Y230570D01*
X415068Y230136D01*
X415852Y229996D01*
X416628Y230173D01*
X417218Y230581D01*
X435016Y248379D01*
X435456Y249043D01*
X435602Y249794D01*
X435602Y255564D01*
X437794Y260856D01*
X441844Y264906D01*
X447136Y267098D01*
X452864Y267098D01*
X458156Y264906D01*
X462206Y260856D01*
X464398Y255564D01*
X464398Y249836D01*
X462206Y244544D01*
X459076Y241414D01*
X458636Y240751D01*
X458491Y239968D01*
X458661Y239191D01*
X459076Y238586D01*
X462206Y235456D01*
X464398Y230164D01*
X464398Y224436D01*
X462206Y219144D01*
X461476Y218414D01*
X461036Y217751D01*
X460891Y216968D01*
X461061Y216191D01*
X461522Y215541D01*
X462199Y215123D01*
X462890Y215000D01*
X497110Y215000D01*
X497890Y215158D01*
G37*
%LPC*%
G36*
X322932Y431083D02*
X319790Y432385D01*
X317385Y434790D01*
X316083Y437932D01*
X316083Y441334D01*
X317385Y444476D01*
X318787Y445879D01*
X319227Y446542D01*
X319373Y447325D01*
X319202Y448102D01*
X318787Y448707D01*
X318404Y449090D01*
X316950Y452600D01*
X316950Y456400D01*
X318404Y459910D01*
X321090Y462596D01*
X324600Y464050D01*
X328400Y464050D01*
X331950Y462579D01*
X332544Y462186D01*
X333294Y462040D01*
X342706Y462040D01*
X343486Y462198D01*
X344120Y462626D01*
X344590Y463096D01*
X348100Y464550D01*
X351900Y464550D01*
X355410Y463096D01*
X358096Y460410D01*
X359550Y456900D01*
X359550Y453100D01*
X358096Y449590D01*
X356713Y448207D01*
X356273Y447544D01*
X356127Y446761D01*
X356298Y445984D01*
X356713Y445379D01*
X357248Y444843D01*
X358550Y441701D01*
X358550Y438299D01*
X357248Y435157D01*
X354843Y432752D01*
X351701Y431450D01*
X348299Y431450D01*
X345157Y432752D01*
X344994Y432914D01*
X344331Y433354D01*
X343580Y433500D01*
X331420Y433500D01*
X330640Y433342D01*
X330006Y432914D01*
X329476Y432385D01*
X326334Y431083D01*
X322932Y431083D01*
G37*
G36*
X593000Y426270D02*
X593000Y427387D01*
X594827Y431797D01*
X598203Y435173D01*
X602613Y437000D01*
X603730Y437000D01*
X603730Y426270D01*
X593000Y426270D01*
G37*
G36*
X606270Y426270D02*
X606270Y437000D01*
X607387Y437000D01*
X611797Y435173D01*
X615173Y431797D01*
X617000Y427387D01*
X617000Y426270D01*
X606270Y426270D01*
G37*
G36*
X606270Y413000D02*
X606270Y423730D01*
X617000Y423730D01*
X617000Y422613D01*
X615173Y418203D01*
X611797Y414827D01*
X607387Y413000D01*
X606270Y413000D01*
G37*
G36*
X602613Y413000D02*
X598203Y414827D01*
X594827Y418203D01*
X593000Y422613D01*
X593000Y423730D01*
X603730Y423730D01*
X603730Y413000D01*
X602613Y413000D01*
G37*
G36*
X529270Y405700D02*
X529270Y409680D01*
X538750Y409680D01*
X538750Y406872D01*
X537578Y405700D01*
X529270Y405700D01*
G37*
G36*
X518422Y405700D02*
X517250Y406872D01*
X517250Y409680D01*
X526730Y409680D01*
X526730Y405700D01*
X518422Y405700D01*
G37*
G36*
X436647Y396504D02*
X431904Y401247D01*
X431904Y403330D01*
X438730Y403330D01*
X438730Y396504D01*
X436647Y396504D01*
G37*
G36*
X441270Y396504D02*
X441270Y403330D01*
X448096Y403330D01*
X448096Y401247D01*
X443353Y396504D01*
X441270Y396504D01*
G37*
G36*
X281504Y396270D02*
X281504Y398353D01*
X286247Y403096D01*
X288330Y403096D01*
X288330Y396270D01*
X281504Y396270D01*
G37*
G36*
X290870Y396270D02*
X290870Y403096D01*
X292953Y403096D01*
X297696Y398353D01*
X297696Y396270D01*
X290870Y396270D01*
G37*
G36*
X495404Y342004D02*
X488904Y348504D01*
X488904Y357696D01*
X492890Y361682D01*
X493330Y362346D01*
X493476Y363097D01*
X493476Y371469D01*
X493318Y372249D01*
X492890Y372883D01*
X484909Y380864D01*
X484246Y381304D01*
X483495Y381450D01*
X483299Y381450D01*
X480157Y382752D01*
X477752Y385157D01*
X476450Y388299D01*
X476450Y391701D01*
X477752Y394843D01*
X480157Y397248D01*
X483299Y398550D01*
X486701Y398550D01*
X489843Y397248D01*
X492248Y394843D01*
X493550Y391701D01*
X493550Y391505D01*
X493708Y390725D01*
X494136Y390091D01*
X505531Y378696D01*
X506524Y376298D01*
X506524Y363097D01*
X506682Y362316D01*
X507110Y361682D01*
X511096Y357696D01*
X511096Y348504D01*
X504596Y342004D01*
X495404Y342004D01*
G37*
G36*
X452222Y389688D02*
X452222Y391772D01*
X456965Y396514D01*
X459048Y396514D01*
X459048Y389688D01*
X452222Y389688D01*
G37*
G36*
X461588Y389688D02*
X461588Y396514D01*
X463672Y396514D01*
X468414Y391772D01*
X468414Y389688D01*
X461588Y389688D01*
G37*
G36*
X290870Y386904D02*
X290870Y393730D01*
X297696Y393730D01*
X297696Y391647D01*
X292953Y386904D01*
X290870Y386904D01*
G37*
G36*
X286247Y386904D02*
X281504Y391647D01*
X281504Y393730D01*
X288330Y393730D01*
X288330Y386904D01*
X286247Y386904D01*
G37*
G36*
X456965Y380322D02*
X452222Y385065D01*
X452222Y387148D01*
X459048Y387148D01*
X459048Y380322D01*
X456965Y380322D01*
G37*
G36*
X461588Y380322D02*
X461588Y387148D01*
X468414Y387148D01*
X468414Y385065D01*
X463672Y380322D01*
X461588Y380322D01*
G37*
G36*
X566904Y354370D02*
X566904Y356453D01*
X571647Y361196D01*
X573730Y361196D01*
X573730Y354370D01*
X566904Y354370D01*
G37*
G36*
X526270Y354370D02*
X526270Y361196D01*
X528353Y361196D01*
X533096Y356453D01*
X533096Y354370D01*
X526270Y354370D01*
G37*
G36*
X601270Y354370D02*
X601270Y361196D01*
X603353Y361196D01*
X608096Y356453D01*
X608096Y354370D01*
X601270Y354370D01*
G37*
G36*
X576270Y354370D02*
X576270Y361196D01*
X578353Y361196D01*
X583096Y356453D01*
X583096Y354370D01*
X576270Y354370D01*
G37*
G36*
X551270Y354370D02*
X551270Y361196D01*
X553353Y361196D01*
X558096Y356453D01*
X558096Y354370D01*
X551270Y354370D01*
G37*
G36*
X516904Y354370D02*
X516904Y356453D01*
X521647Y361196D01*
X523730Y361196D01*
X523730Y354370D01*
X516904Y354370D01*
G37*
G36*
X591904Y354370D02*
X591904Y356453D01*
X596647Y361196D01*
X598730Y361196D01*
X598730Y354370D01*
X591904Y354370D01*
G37*
G36*
X541904Y354370D02*
X541904Y356453D01*
X546647Y361196D01*
X548730Y361196D01*
X548730Y354370D01*
X541904Y354370D01*
G37*
G36*
X551270Y345004D02*
X551270Y351830D01*
X558096Y351830D01*
X558096Y349747D01*
X553353Y345004D01*
X551270Y345004D01*
G37*
G36*
X526270Y345004D02*
X526270Y351830D01*
X533096Y351830D01*
X533096Y349747D01*
X528353Y345004D01*
X526270Y345004D01*
G37*
G36*
X546647Y345004D02*
X541904Y349747D01*
X541904Y351830D01*
X548730Y351830D01*
X548730Y345004D01*
X546647Y345004D01*
G37*
G36*
X571647Y345004D02*
X566904Y349747D01*
X566904Y351830D01*
X573730Y351830D01*
X573730Y345004D01*
X571647Y345004D01*
G37*
G36*
X576270Y345004D02*
X576270Y351830D01*
X583096Y351830D01*
X583096Y349747D01*
X578353Y345004D01*
X576270Y345004D01*
G37*
G36*
X596647Y345004D02*
X591904Y349747D01*
X591904Y351830D01*
X598730Y351830D01*
X598730Y345004D01*
X596647Y345004D01*
G37*
G36*
X601270Y345004D02*
X601270Y351830D01*
X608096Y351830D01*
X608096Y349747D01*
X603353Y345004D01*
X601270Y345004D01*
G37*
G36*
X521647Y345004D02*
X516904Y349747D01*
X516904Y351830D01*
X523730Y351830D01*
X523730Y345004D01*
X521647Y345004D01*
G37*
G36*
X426356Y312635D02*
X422143Y312635D01*
X419635Y313674D01*
X418854Y313826D01*
X418104Y313674D01*
X415596Y312635D01*
X413102Y312635D01*
X410797Y313590D01*
X409034Y315353D01*
X408079Y317658D01*
X408079Y321411D01*
X407921Y322191D01*
X407493Y322825D01*
X406068Y324251D01*
X405113Y326555D01*
X405113Y329050D01*
X406068Y331354D01*
X407831Y333118D01*
X410136Y334073D01*
X418562Y334073D01*
X419587Y333648D01*
X420369Y333496D01*
X421118Y333648D01*
X421791Y333927D01*
X421791Y333927D01*
X422143Y334073D01*
X423391Y334073D01*
X425035Y334073D01*
X425036Y334073D01*
X427604Y334073D01*
X428629Y333648D01*
X429410Y333496D01*
X430160Y333648D01*
X431185Y334073D01*
X438128Y334073D01*
X440433Y333118D01*
X443680Y329871D01*
X444634Y327567D01*
X444634Y322107D01*
X443680Y319802D01*
X440433Y316555D01*
X438269Y315659D01*
X437620Y315226D01*
X435984Y313590D01*
X433680Y312635D01*
X431185Y312635D01*
X430160Y313060D01*
X429378Y313212D01*
X428629Y313060D01*
X427604Y312635D01*
X426356Y312635D01*
G37*
G36*
X273278Y286598D02*
X272106Y287770D01*
X272106Y290630D01*
X282996Y290630D01*
X282996Y286598D01*
X273278Y286598D01*
G37*
G36*
X285536Y286598D02*
X285536Y290630D01*
X296426Y290630D01*
X296426Y287770D01*
X295254Y286598D01*
X285536Y286598D01*
G37*
G36*
X501270Y278170D02*
X501270Y284996D01*
X503353Y284996D01*
X508096Y280253D01*
X508096Y278170D01*
X501270Y278170D01*
G37*
G36*
X491904Y278170D02*
X491904Y280253D01*
X496647Y284996D01*
X498730Y284996D01*
X498730Y278170D01*
X491904Y278170D01*
G37*
G36*
X496647Y268804D02*
X491904Y273547D01*
X491904Y275630D01*
X498730Y275630D01*
X498730Y268804D01*
X496647Y268804D01*
G37*
%LPD*%
G36*
X590066Y5158D02*
X590723Y5609D01*
X591152Y6279D01*
X591285Y7064D01*
X591102Y7838D01*
X590596Y8512D01*
X587513Y11183D01*
X581917Y19891D01*
X578919Y30100D01*
X578547Y30804D01*
X577930Y31307D01*
X577166Y31530D01*
X576376Y31437D01*
X575684Y31043D01*
X575201Y30410D01*
X575000Y29536D01*
X575000Y20037D01*
X574986Y19647D01*
X574916Y19101D01*
X574792Y18582D01*
X574613Y18078D01*
X574382Y17597D01*
X574100Y17143D01*
X573772Y16722D01*
X573401Y16338D01*
X572990Y15996D01*
X572546Y15700D01*
X572073Y15453D01*
X571576Y15258D01*
X571061Y15117D01*
X570533Y15031D01*
X569946Y15000D01*
X540037Y15000D01*
X539647Y15014D01*
X539101Y15084D01*
X538582Y15208D01*
X538078Y15387D01*
X537597Y15618D01*
X537143Y15900D01*
X536722Y16228D01*
X536338Y16599D01*
X535996Y17010D01*
X535700Y17454D01*
X535453Y17928D01*
X535258Y18424D01*
X535117Y18939D01*
X535031Y19467D01*
X535000Y20054D01*
X535000Y84120D01*
X534842Y84900D01*
X534392Y85557D01*
X533721Y85986D01*
X532936Y86119D01*
X532162Y85936D01*
X531586Y85534D01*
X511790Y65738D01*
X511350Y65075D01*
X511204Y64324D01*
X511204Y60465D01*
X511362Y59685D01*
X511790Y59050D01*
X512491Y58350D01*
X514760Y52871D01*
X514760Y27129D01*
X512491Y21650D01*
X508298Y17457D01*
X502819Y15188D01*
X496889Y15188D01*
X491410Y17457D01*
X487217Y21650D01*
X484948Y27129D01*
X484948Y52871D01*
X487217Y58350D01*
X487918Y59050D01*
X488358Y59714D01*
X488504Y60465D01*
X488504Y72112D01*
X490232Y76283D01*
X545304Y131356D01*
X545744Y132019D01*
X545890Y132770D01*
X545890Y137005D01*
X546651Y138842D01*
X547240Y139431D01*
X547680Y140095D01*
X547826Y140846D01*
X547826Y148693D01*
X549206Y152024D01*
X553767Y156586D01*
X554207Y157249D01*
X554353Y158032D01*
X554182Y158809D01*
X553722Y159459D01*
X553044Y159877D01*
X552353Y160000D01*
X526920Y160000D01*
X526140Y159842D01*
X525483Y159392D01*
X525054Y158721D01*
X524921Y157936D01*
X525104Y157162D01*
X525506Y156586D01*
X527248Y154843D01*
X528550Y151701D01*
X528550Y148299D01*
X527248Y145157D01*
X524843Y142752D01*
X523788Y142314D01*
X523127Y141870D01*
X522693Y141202D01*
X522553Y140419D01*
X522730Y139643D01*
X523139Y139052D01*
X523349Y138842D01*
X524110Y137005D01*
X524110Y121015D01*
X523349Y119178D01*
X521942Y117771D01*
X520105Y117010D01*
X506115Y117010D01*
X504278Y117771D01*
X502871Y119178D01*
X502110Y121015D01*
X502110Y137005D01*
X502871Y138842D01*
X504278Y140249D01*
X505351Y140694D01*
X506011Y141138D01*
X506446Y141805D01*
X506586Y142541D01*
X506586Y144408D01*
X507579Y146806D01*
X510864Y150091D01*
X511304Y150754D01*
X511450Y151505D01*
X511450Y151701D01*
X512752Y154843D01*
X514494Y156586D01*
X514934Y157249D01*
X515080Y158032D01*
X514909Y158809D01*
X514448Y159459D01*
X513771Y159877D01*
X513080Y160000D01*
X477647Y160000D01*
X476867Y159842D01*
X476210Y159392D01*
X475781Y158721D01*
X475648Y157936D01*
X475831Y157162D01*
X476233Y156586D01*
X477684Y155134D01*
X479064Y151803D01*
X479064Y148197D01*
X477684Y144866D01*
X476540Y143721D01*
X476100Y143058D01*
X475954Y142307D01*
X475954Y140846D01*
X476112Y140065D01*
X476540Y139431D01*
X477129Y138842D01*
X477890Y137005D01*
X477890Y132510D01*
X478042Y131745D01*
X478152Y131480D01*
X478597Y130819D01*
X479264Y130385D01*
X480048Y130245D01*
X480824Y130422D01*
X481469Y130888D01*
X481882Y131569D01*
X482000Y132245D01*
X482000Y136838D01*
X483172Y138010D01*
X488730Y138010D01*
X488730Y120010D01*
X483172Y120010D01*
X481654Y121527D01*
X480991Y121967D01*
X480208Y122113D01*
X479431Y121942D01*
X478781Y121482D01*
X478363Y120804D01*
X478240Y120113D01*
X478240Y74632D01*
X476512Y70461D01*
X464202Y58150D01*
X463762Y57487D01*
X463616Y56704D01*
X463768Y55971D01*
X465052Y52871D01*
X465052Y27129D01*
X462783Y21650D01*
X458590Y17457D01*
X453111Y15188D01*
X447181Y15188D01*
X441702Y17457D01*
X437509Y21650D01*
X435240Y27129D01*
X435240Y52871D01*
X437509Y58350D01*
X438210Y59050D01*
X438650Y59714D01*
X438796Y60465D01*
X438796Y62404D01*
X440524Y66575D01*
X454954Y81006D01*
X455394Y81669D01*
X455540Y82420D01*
X455540Y131268D01*
X455738Y131745D01*
X455890Y132510D01*
X455890Y137005D01*
X456651Y138842D01*
X457240Y139431D01*
X457680Y140095D01*
X457826Y140846D01*
X457826Y148693D01*
X459206Y152024D01*
X463767Y156586D01*
X464207Y157249D01*
X464353Y158032D01*
X464182Y158809D01*
X463722Y159459D01*
X463044Y159877D01*
X462353Y160000D01*
X455037Y160000D01*
X454647Y160014D01*
X454101Y160084D01*
X453560Y160213D01*
X452765Y160240D01*
X452022Y159955D01*
X451449Y159403D01*
X451137Y158670D01*
X451096Y158268D01*
X451096Y150804D01*
X444596Y144304D01*
X435404Y144304D01*
X428904Y150804D01*
X428904Y159996D01*
X435404Y166496D01*
X444596Y166496D01*
X446586Y164506D01*
X447249Y164067D01*
X448032Y163921D01*
X448809Y164092D01*
X449459Y164552D01*
X449877Y165229D01*
X450000Y165921D01*
X450000Y209963D01*
X450014Y210353D01*
X450052Y210648D01*
X449994Y211442D01*
X449631Y212150D01*
X449021Y212661D01*
X448068Y212902D01*
X447136Y212902D01*
X441844Y215094D01*
X437794Y219144D01*
X435809Y223935D01*
X435365Y224595D01*
X434697Y225030D01*
X433914Y225169D01*
X433138Y224992D01*
X432547Y224584D01*
X398718Y190755D01*
X398278Y190091D01*
X398132Y189340D01*
X398132Y177081D01*
X398290Y176300D01*
X398718Y175666D01*
X401382Y173002D01*
X402045Y172563D01*
X402828Y172417D01*
X403605Y172588D01*
X404210Y173002D01*
X410404Y179196D01*
X419596Y179196D01*
X426096Y172696D01*
X426096Y163504D01*
X419596Y157004D01*
X410404Y157004D01*
X404210Y163198D01*
X403547Y163637D01*
X402764Y163783D01*
X401987Y163612D01*
X401382Y163198D01*
X395188Y157004D01*
X385996Y157004D01*
X379210Y163790D01*
X378547Y164229D01*
X377764Y164375D01*
X376987Y164204D01*
X376382Y163790D01*
X369596Y157004D01*
X360404Y157004D01*
X353904Y163504D01*
X353904Y172696D01*
X359847Y178639D01*
X360287Y179303D01*
X360433Y180085D01*
X360262Y180863D01*
X359801Y181512D01*
X359124Y181930D01*
X358433Y182054D01*
X322130Y182054D01*
X321350Y181895D01*
X320694Y181445D01*
X320265Y180774D01*
X320132Y179990D01*
X320315Y179215D01*
X320716Y178639D01*
X326096Y173260D01*
X326096Y164067D01*
X319596Y157567D01*
X310404Y157567D01*
X304196Y163775D01*
X303532Y164215D01*
X302750Y164361D01*
X301972Y164190D01*
X301368Y163775D01*
X294596Y157004D01*
X285404Y157004D01*
X278914Y163494D01*
X278251Y163933D01*
X277468Y164079D01*
X276691Y163908D01*
X276086Y163494D01*
X269596Y157004D01*
X260404Y157004D01*
X253904Y163504D01*
X253904Y172696D01*
X260404Y179196D01*
X269596Y179196D01*
X276086Y172706D01*
X276749Y172267D01*
X277532Y172121D01*
X278309Y172292D01*
X278914Y172706D01*
X285404Y179196D01*
X289604Y179196D01*
X290384Y179354D01*
X291019Y179782D01*
X296456Y185219D01*
X296896Y185883D01*
X297042Y186665D01*
X296871Y187443D01*
X296410Y188092D01*
X295733Y188510D01*
X295042Y188634D01*
X222025Y188634D01*
X221245Y188475D01*
X220611Y188048D01*
X215173Y182610D01*
X214734Y181947D01*
X214588Y181164D01*
X214759Y180387D01*
X215219Y179737D01*
X215896Y179319D01*
X216588Y179196D01*
X219596Y179196D01*
X226096Y172696D01*
X226096Y163504D01*
X219596Y157004D01*
X210404Y157004D01*
X203914Y163494D01*
X203251Y163933D01*
X202468Y164079D01*
X201691Y163908D01*
X201086Y163494D01*
X194596Y157004D01*
X185404Y157004D01*
X178914Y163494D01*
X178251Y163933D01*
X177468Y164079D01*
X176691Y163908D01*
X176086Y163494D01*
X169596Y157004D01*
X160404Y157004D01*
X153914Y163494D01*
X153251Y163933D01*
X152468Y164079D01*
X151691Y163908D01*
X151086Y163494D01*
X144596Y157004D01*
X135404Y157004D01*
X128914Y163494D01*
X128251Y163933D01*
X127468Y164079D01*
X126691Y163908D01*
X126086Y163494D01*
X119596Y157004D01*
X110404Y157004D01*
X103904Y163504D01*
X103904Y172696D01*
X106874Y175666D01*
X107314Y176330D01*
X107460Y177081D01*
X107460Y186100D01*
X108608Y188871D01*
X143718Y223981D01*
X144158Y224645D01*
X144304Y225396D01*
X144304Y229596D01*
X150804Y236096D01*
X159996Y236096D01*
X166496Y229596D01*
X166496Y220404D01*
X159996Y213904D01*
X155796Y213904D01*
X155016Y213746D01*
X154381Y213318D01*
X123126Y182063D01*
X122686Y181399D01*
X122540Y180648D01*
X122540Y177081D01*
X122698Y176300D01*
X123126Y175666D01*
X126086Y172706D01*
X126749Y172267D01*
X127532Y172121D01*
X128309Y172292D01*
X128914Y172706D01*
X132004Y175796D01*
X132437Y176445D01*
X133608Y179271D01*
X145729Y191392D01*
X148500Y192540D01*
X155039Y192540D01*
X155820Y192698D01*
X156476Y193149D01*
X156905Y193819D01*
X157038Y194604D01*
X157004Y194749D01*
X157004Y204596D01*
X163504Y211096D01*
X172696Y211096D01*
X179196Y204596D01*
X179196Y198550D01*
X179354Y197770D01*
X179805Y197113D01*
X180475Y196684D01*
X181260Y196551D01*
X182034Y196734D01*
X182610Y197135D01*
X195897Y210422D01*
X196337Y211086D01*
X196482Y211868D01*
X196312Y212646D01*
X195851Y213295D01*
X195248Y213684D01*
X191844Y215094D01*
X187794Y219144D01*
X187491Y219875D01*
X187046Y220535D01*
X186617Y220820D01*
X169119Y238318D01*
X168455Y238758D01*
X167704Y238904D01*
X163504Y238904D01*
X157004Y245404D01*
X157004Y254596D01*
X163494Y261086D01*
X163933Y261749D01*
X164079Y262532D01*
X163908Y263309D01*
X163494Y263914D01*
X157004Y270404D01*
X157004Y279596D01*
X163494Y286086D01*
X163933Y286749D01*
X164079Y287532D01*
X163908Y288309D01*
X163494Y288914D01*
X157004Y295404D01*
X157004Y304596D01*
X163504Y311096D01*
X172696Y311096D01*
X179196Y304596D01*
X179196Y295404D01*
X172706Y288914D01*
X172267Y288251D01*
X172121Y287468D01*
X172292Y286691D01*
X172706Y286086D01*
X176174Y282618D01*
X176838Y282178D01*
X177589Y282032D01*
X189450Y282032D01*
X190230Y282190D01*
X190887Y282641D01*
X191316Y283311D01*
X191450Y284032D01*
X191450Y286701D01*
X192816Y289998D01*
X192968Y290763D01*
X192968Y352476D01*
X192810Y353256D01*
X192360Y353913D01*
X191689Y354342D01*
X190904Y354475D01*
X190130Y354292D01*
X189554Y353891D01*
X179271Y343608D01*
X176445Y342437D01*
X175796Y342004D01*
X172696Y338904D01*
X163504Y338904D01*
X157004Y345404D01*
X157004Y354596D01*
X163494Y361086D01*
X163933Y361749D01*
X164079Y362532D01*
X163908Y363309D01*
X163494Y363914D01*
X157004Y370404D01*
X157004Y379596D01*
X163504Y386096D01*
X172696Y386096D01*
X174046Y384746D01*
X174709Y384307D01*
X175492Y384161D01*
X176269Y384332D01*
X176919Y384792D01*
X177337Y385469D01*
X177460Y386161D01*
X177460Y413839D01*
X177302Y414620D01*
X176852Y415276D01*
X176181Y415705D01*
X175396Y415838D01*
X174622Y415655D01*
X174046Y415254D01*
X172696Y413904D01*
X163504Y413904D01*
X157004Y420404D01*
X157004Y429596D01*
X163504Y436096D01*
X172696Y436096D01*
X174046Y434746D01*
X174709Y434307D01*
X175492Y434161D01*
X176269Y434332D01*
X176919Y434792D01*
X177337Y435469D01*
X177460Y436161D01*
X177460Y454148D01*
X177302Y454928D01*
X176874Y455563D01*
X169119Y463318D01*
X168455Y463758D01*
X167704Y463904D01*
X163504Y463904D01*
X160534Y466874D01*
X159870Y467314D01*
X159119Y467460D01*
X131000Y467460D01*
X128229Y468608D01*
X115368Y481469D01*
X114220Y484240D01*
X114220Y497680D01*
X114062Y498460D01*
X113612Y499117D01*
X112941Y499546D01*
X112220Y499680D01*
X103873Y499680D01*
X99475Y504077D01*
X98812Y504517D01*
X98029Y504663D01*
X97252Y504492D01*
X96603Y504031D01*
X96214Y503428D01*
X95559Y501848D01*
X94152Y500441D01*
X92315Y499680D01*
X75085Y499680D01*
X73248Y500441D01*
X71841Y501848D01*
X71080Y503685D01*
X71080Y507743D01*
X70922Y508523D01*
X70472Y509179D01*
X69801Y509608D01*
X69016Y509742D01*
X68242Y509558D01*
X67398Y508824D01*
X62487Y501183D01*
X54663Y494403D01*
X45247Y490103D01*
X35000Y488630D01*
X24753Y490103D01*
X15337Y494403D01*
X8310Y500492D01*
X7616Y500884D01*
X6826Y500973D01*
X6062Y500747D01*
X5448Y500242D01*
X5079Y499536D01*
X5000Y498981D01*
X5000Y61019D01*
X5158Y60239D01*
X5609Y59583D01*
X6279Y59154D01*
X7064Y59020D01*
X7838Y59203D01*
X8310Y59508D01*
X15337Y65597D01*
X24753Y69897D01*
X35000Y71370D01*
X45247Y69897D01*
X54663Y65597D01*
X62487Y58817D01*
X68083Y50109D01*
X71000Y40176D01*
X71000Y29824D01*
X68083Y19891D01*
X62487Y11183D01*
X59404Y8512D01*
X58918Y7881D01*
X58717Y7111D01*
X58832Y6323D01*
X59245Y5643D01*
X59891Y5177D01*
X60714Y5000D01*
X589286Y5000D01*
X590066Y5158D01*
G37*
%LPC*%
G36*
X87304Y463904D02*
X80804Y470404D01*
X80804Y479596D01*
X87304Y486096D01*
X96496Y486096D01*
X102996Y479596D01*
X102996Y470404D01*
X96496Y463904D01*
X87304Y463904D01*
G37*
G36*
X27129Y445132D02*
X21650Y447401D01*
X17457Y451594D01*
X15188Y457073D01*
X15188Y463003D01*
X17457Y468482D01*
X21650Y472675D01*
X27129Y474944D01*
X52871Y474944D01*
X58350Y472675D01*
X62543Y468482D01*
X64812Y463003D01*
X64812Y457073D01*
X62543Y451594D01*
X58350Y447401D01*
X52871Y445132D01*
X27129Y445132D01*
G37*
G36*
X100004Y438904D02*
X93504Y445404D01*
X93504Y454596D01*
X100004Y461096D01*
X109196Y461096D01*
X115696Y454596D01*
X115696Y445404D01*
X109196Y438904D01*
X100004Y438904D01*
G37*
G36*
X147304Y451270D02*
X147304Y453353D01*
X152047Y458096D01*
X154130Y458096D01*
X154130Y451270D01*
X147304Y451270D01*
G37*
G36*
X156670Y451270D02*
X156670Y458096D01*
X158753Y458096D01*
X163496Y453353D01*
X163496Y451270D01*
X156670Y451270D01*
G37*
G36*
X156670Y441904D02*
X156670Y448730D01*
X163496Y448730D01*
X163496Y446647D01*
X158753Y441904D01*
X156670Y441904D01*
G37*
G36*
X152047Y441904D02*
X147304Y446647D01*
X147304Y448730D01*
X154130Y448730D01*
X154130Y441904D01*
X152047Y441904D01*
G37*
G36*
X87304Y413904D02*
X80804Y420404D01*
X80804Y429596D01*
X87304Y436096D01*
X96496Y436096D01*
X102996Y429596D01*
X102996Y420404D01*
X96496Y413904D01*
X87304Y413904D01*
G37*
G36*
X27129Y395094D02*
X21650Y397363D01*
X17457Y401556D01*
X15188Y407035D01*
X15188Y412965D01*
X17457Y418444D01*
X21650Y422637D01*
X27129Y424906D01*
X52871Y424906D01*
X58350Y422637D01*
X62543Y418444D01*
X64812Y412965D01*
X64812Y407035D01*
X62543Y401556D01*
X58350Y397363D01*
X52871Y395094D01*
X27129Y395094D01*
G37*
G36*
X150804Y388904D02*
X144304Y395404D01*
X144304Y404596D01*
X150804Y411096D01*
X159996Y411096D01*
X166496Y404596D01*
X166496Y395404D01*
X159996Y388904D01*
X150804Y388904D01*
G37*
G36*
X105870Y401270D02*
X105870Y408096D01*
X107953Y408096D01*
X112696Y403353D01*
X112696Y401270D01*
X105870Y401270D01*
G37*
G36*
X96504Y401270D02*
X96504Y403353D01*
X101247Y408096D01*
X103330Y408096D01*
X103330Y401270D01*
X96504Y401270D01*
G37*
G36*
X101247Y391904D02*
X96504Y396647D01*
X96504Y398730D01*
X103330Y398730D01*
X103330Y391904D01*
X101247Y391904D01*
G37*
G36*
X105870Y391904D02*
X105870Y398730D01*
X112696Y398730D01*
X112696Y396647D01*
X107953Y391904D01*
X105870Y391904D01*
G37*
G36*
X87304Y338904D02*
X80804Y345404D01*
X80804Y354596D01*
X87294Y361086D01*
X87733Y361749D01*
X87879Y362532D01*
X87708Y363309D01*
X87294Y363914D01*
X80804Y370404D01*
X80804Y379596D01*
X87304Y386096D01*
X96496Y386096D01*
X102996Y379596D01*
X102996Y370404D01*
X96506Y363914D01*
X96067Y363251D01*
X95921Y362468D01*
X96092Y361691D01*
X96506Y361086D01*
X102996Y354596D01*
X102996Y345404D01*
X96496Y338904D01*
X87304Y338904D01*
G37*
G36*
X18188Y361232D02*
X18188Y362330D01*
X20001Y366706D01*
X23350Y370055D01*
X27726Y371868D01*
X38730Y371868D01*
X38730Y361232D01*
X18188Y361232D01*
G37*
G36*
X41270Y361232D02*
X41270Y371868D01*
X52274Y371868D01*
X56650Y370055D01*
X59999Y366706D01*
X61812Y362330D01*
X61812Y361232D01*
X41270Y361232D01*
G37*
G36*
X27726Y348056D02*
X23350Y349869D01*
X20001Y353218D01*
X18188Y357594D01*
X18188Y358692D01*
X38730Y358692D01*
X38730Y348056D01*
X27726Y348056D01*
G37*
G36*
X41270Y348056D02*
X41270Y358692D01*
X61812Y358692D01*
X61812Y357594D01*
X59999Y353218D01*
X56650Y349869D01*
X52274Y348056D01*
X41270Y348056D01*
G37*
G36*
X150372Y314336D02*
X143872Y320836D01*
X143872Y330028D01*
X150372Y336528D01*
X159564Y336528D01*
X166064Y330028D01*
X166064Y320836D01*
X159564Y314336D01*
X150372Y314336D01*
G37*
G36*
X105438Y326702D02*
X105438Y333528D01*
X107522Y333528D01*
X112264Y328785D01*
X112264Y326702D01*
X105438Y326702D01*
G37*
G36*
X96072Y326702D02*
X96072Y328785D01*
X100815Y333528D01*
X102898Y333528D01*
X102898Y326702D01*
X96072Y326702D01*
G37*
G36*
X27129Y295132D02*
X21650Y297401D01*
X17457Y301594D01*
X15188Y307073D01*
X15188Y313003D01*
X17457Y318482D01*
X21650Y322675D01*
X27129Y324944D01*
X52871Y324944D01*
X58350Y322675D01*
X62543Y318482D01*
X64812Y313003D01*
X64812Y307073D01*
X62543Y301594D01*
X58350Y297401D01*
X52871Y295132D01*
X27129Y295132D01*
G37*
G36*
X100815Y317336D02*
X96072Y322078D01*
X96072Y324162D01*
X102898Y324162D01*
X102898Y317336D01*
X100815Y317336D01*
G37*
G36*
X105438Y317336D02*
X105438Y324162D01*
X112264Y324162D01*
X112264Y322078D01*
X107522Y317336D01*
X105438Y317336D01*
G37*
G36*
X87304Y238904D02*
X80804Y245404D01*
X80804Y254596D01*
X87294Y261086D01*
X87733Y261749D01*
X87879Y262532D01*
X87708Y263309D01*
X87294Y263914D01*
X80804Y270404D01*
X80804Y279596D01*
X87294Y286086D01*
X87733Y286749D01*
X87879Y287532D01*
X87708Y288309D01*
X87294Y288914D01*
X80804Y295404D01*
X80804Y304596D01*
X87304Y311096D01*
X96496Y311096D01*
X102996Y304596D01*
X102996Y295404D01*
X96506Y288914D01*
X96067Y288251D01*
X95921Y287468D01*
X96092Y286691D01*
X96506Y286086D01*
X102996Y279596D01*
X102996Y270404D01*
X96506Y263914D01*
X96067Y263251D01*
X95921Y262468D01*
X96092Y261691D01*
X96506Y261086D01*
X102996Y254596D01*
X102996Y245404D01*
X96496Y238904D01*
X87304Y238904D01*
G37*
G36*
X27129Y245094D02*
X21650Y247363D01*
X17457Y251556D01*
X15188Y257035D01*
X15188Y262965D01*
X17457Y268444D01*
X21650Y272637D01*
X27129Y274906D01*
X52871Y274906D01*
X58350Y272637D01*
X62543Y268444D01*
X64812Y262965D01*
X64812Y257035D01*
X62543Y251556D01*
X58350Y247363D01*
X52871Y245094D01*
X27129Y245094D01*
G37*
G36*
X96504Y226270D02*
X96504Y228353D01*
X101247Y233096D01*
X103330Y233096D01*
X103330Y226270D01*
X96504Y226270D01*
G37*
G36*
X105870Y226270D02*
X105870Y233096D01*
X107953Y233096D01*
X112696Y228353D01*
X112696Y226270D01*
X105870Y226270D01*
G37*
G36*
X105870Y216904D02*
X105870Y223730D01*
X112696Y223730D01*
X112696Y221647D01*
X107953Y216904D01*
X105870Y216904D01*
G37*
G36*
X101247Y216904D02*
X96504Y221647D01*
X96504Y223730D01*
X103330Y223730D01*
X103330Y216904D01*
X101247Y216904D01*
G37*
G36*
X41270Y211232D02*
X41270Y221868D01*
X52274Y221868D01*
X56650Y220055D01*
X59999Y216706D01*
X61812Y212330D01*
X61812Y211232D01*
X41270Y211232D01*
G37*
G36*
X18188Y211232D02*
X18188Y212330D01*
X20001Y216706D01*
X23350Y220055D01*
X27726Y221868D01*
X38730Y221868D01*
X38730Y211232D01*
X18188Y211232D01*
G37*
G36*
X110404Y80804D02*
X107434Y83774D01*
X106770Y84214D01*
X106019Y84360D01*
X96600Y84360D01*
X93829Y85508D01*
X83608Y95729D01*
X82460Y98500D01*
X82460Y150606D01*
X82302Y151386D01*
X81852Y152043D01*
X81181Y152472D01*
X80460Y152606D01*
X64253Y152606D01*
X63473Y152448D01*
X62817Y151998D01*
X62777Y151936D01*
X58350Y147509D01*
X52871Y145240D01*
X27129Y145240D01*
X21650Y147509D01*
X17457Y151702D01*
X15188Y157181D01*
X15188Y163111D01*
X17457Y168590D01*
X21650Y172783D01*
X27129Y175052D01*
X52871Y175052D01*
X58350Y172783D01*
X62806Y168326D01*
X62850Y168261D01*
X63517Y167826D01*
X64253Y167686D01*
X80460Y167686D01*
X81240Y167844D01*
X81897Y168295D01*
X82326Y168965D01*
X82460Y169686D01*
X82460Y192919D01*
X82302Y193700D01*
X81874Y194334D01*
X80804Y195404D01*
X80804Y204596D01*
X87304Y211096D01*
X96496Y211096D01*
X102996Y204596D01*
X102996Y195404D01*
X98126Y190534D01*
X97686Y189870D01*
X97540Y189119D01*
X97540Y103952D01*
X97698Y103172D01*
X98126Y102537D01*
X100637Y100026D01*
X101301Y99586D01*
X102052Y99440D01*
X106019Y99440D01*
X106800Y99598D01*
X107434Y100026D01*
X110404Y102996D01*
X119596Y102996D01*
X122058Y100534D01*
X122722Y100094D01*
X123473Y99948D01*
X131527Y99948D01*
X132308Y100106D01*
X132942Y100534D01*
X135404Y102996D01*
X144596Y102996D01*
X151086Y96506D01*
X151749Y96067D01*
X152532Y95921D01*
X153309Y96092D01*
X153914Y96506D01*
X160404Y102996D01*
X169596Y102996D01*
X176086Y96506D01*
X176749Y96067D01*
X177532Y95921D01*
X178309Y96092D01*
X178914Y96506D01*
X185404Y102996D01*
X194596Y102996D01*
X201086Y96506D01*
X201749Y96067D01*
X202532Y95921D01*
X203309Y96092D01*
X203914Y96506D01*
X210404Y102996D01*
X219596Y102996D01*
X226096Y96496D01*
X226096Y87304D01*
X219596Y80804D01*
X210404Y80804D01*
X203914Y87294D01*
X203251Y87733D01*
X202468Y87879D01*
X201691Y87708D01*
X201086Y87294D01*
X194596Y80804D01*
X185404Y80804D01*
X178914Y87294D01*
X178251Y87733D01*
X177468Y87879D01*
X176691Y87708D01*
X176086Y87294D01*
X169596Y80804D01*
X160404Y80804D01*
X153914Y87294D01*
X153251Y87733D01*
X152468Y87879D01*
X151691Y87708D01*
X151086Y87294D01*
X144596Y80804D01*
X135404Y80804D01*
X132942Y83266D01*
X132278Y83706D01*
X131527Y83852D01*
X123473Y83852D01*
X122692Y83694D01*
X122058Y83266D01*
X119596Y80804D01*
X110404Y80804D01*
G37*
G36*
X27726Y198056D02*
X23350Y199869D01*
X20001Y203218D01*
X18188Y207594D01*
X18188Y208692D01*
X38730Y208692D01*
X38730Y198056D01*
X27726Y198056D01*
G37*
G36*
X41270Y198056D02*
X41270Y208692D01*
X61812Y208692D01*
X61812Y207594D01*
X59999Y203218D01*
X56650Y199869D01*
X52274Y198056D01*
X41270Y198056D01*
G37*
G36*
X335404Y144304D02*
X328904Y150804D01*
X328904Y159996D01*
X335404Y166496D01*
X344596Y166496D01*
X351096Y159996D01*
X351096Y150804D01*
X344596Y144304D01*
X335404Y144304D01*
G37*
G36*
X235404Y144304D02*
X228904Y150804D01*
X228904Y159996D01*
X235404Y166496D01*
X244596Y166496D01*
X251096Y159996D01*
X251096Y150804D01*
X244596Y144304D01*
X235404Y144304D01*
G37*
G36*
X491270Y130280D02*
X491270Y138010D01*
X496828Y138010D01*
X498000Y136838D01*
X498000Y130280D01*
X491270Y130280D01*
G37*
G36*
X491270Y120010D02*
X491270Y127740D01*
X498000Y127740D01*
X498000Y121182D01*
X496828Y120010D01*
X491270Y120010D01*
G37*
G36*
X41270Y111124D02*
X41270Y121760D01*
X52274Y121760D01*
X56650Y119947D01*
X59999Y116598D01*
X61812Y112222D01*
X61812Y111124D01*
X41270Y111124D01*
G37*
G36*
X18188Y111124D02*
X18188Y112222D01*
X20001Y116598D01*
X23350Y119947D01*
X27726Y121760D01*
X38730Y121760D01*
X38730Y111124D01*
X18188Y111124D01*
G37*
G36*
X491270Y111270D02*
X491270Y115481D01*
X493144Y114705D01*
X494705Y113144D01*
X495481Y111270D01*
X491270Y111270D01*
G37*
G36*
X484519Y111270D02*
X485295Y113144D01*
X486856Y114705D01*
X488730Y115481D01*
X488730Y111270D01*
X484519Y111270D01*
G37*
G36*
X441270Y105870D02*
X441270Y112696D01*
X443353Y112696D01*
X448096Y107953D01*
X448096Y105870D01*
X441270Y105870D01*
G37*
G36*
X241270Y105870D02*
X241270Y112696D01*
X243353Y112696D01*
X248096Y107953D01*
X248096Y105870D01*
X241270Y105870D01*
G37*
G36*
X341270Y105870D02*
X341270Y112696D01*
X343353Y112696D01*
X348096Y107953D01*
X348096Y105870D01*
X341270Y105870D01*
G37*
G36*
X231904Y105870D02*
X231904Y107953D01*
X236647Y112696D01*
X238730Y112696D01*
X238730Y105870D01*
X231904Y105870D01*
G37*
G36*
X431904Y105870D02*
X431904Y107953D01*
X436647Y112696D01*
X438730Y112696D01*
X438730Y105870D01*
X431904Y105870D01*
G37*
G36*
X331904Y105870D02*
X331904Y107953D01*
X336647Y112696D01*
X338730Y112696D01*
X338730Y105870D01*
X331904Y105870D01*
G37*
G36*
X491270Y108730D02*
X495481Y108730D01*
X494705Y106856D01*
X493144Y105295D01*
X491270Y104519D01*
X491270Y108730D01*
G37*
G36*
X486856Y105295D02*
X485295Y106856D01*
X484519Y108730D01*
X488730Y108730D01*
X488730Y104519D01*
X486856Y105295D01*
G37*
G36*
X41270Y97948D02*
X41270Y108584D01*
X61812Y108584D01*
X61812Y107486D01*
X59999Y103110D01*
X56650Y99761D01*
X52274Y97948D01*
X41270Y97948D01*
G37*
G36*
X27726Y97948D02*
X23350Y99761D01*
X20001Y103110D01*
X18188Y107486D01*
X18188Y108584D01*
X38730Y108584D01*
X38730Y97948D01*
X27726Y97948D01*
G37*
G36*
X260404Y80804D02*
X253904Y87304D01*
X253904Y96496D01*
X260404Y102996D01*
X269596Y102996D01*
X276086Y96506D01*
X276749Y96067D01*
X277532Y95921D01*
X278309Y96092D01*
X278914Y96506D01*
X285404Y102996D01*
X294596Y102996D01*
X300804Y96788D01*
X301468Y96348D01*
X302250Y96203D01*
X303028Y96373D01*
X303633Y96788D01*
X310404Y103559D01*
X319596Y103559D01*
X326096Y97060D01*
X326096Y87867D01*
X319596Y81367D01*
X310404Y81367D01*
X304196Y87575D01*
X303532Y88015D01*
X302750Y88161D01*
X301972Y87990D01*
X301368Y87575D01*
X294596Y80804D01*
X285404Y80804D01*
X278914Y87294D01*
X278251Y87733D01*
X277468Y87879D01*
X276691Y87708D01*
X276086Y87294D01*
X269596Y80804D01*
X260404Y80804D01*
G37*
G36*
X236647Y96504D02*
X231904Y101247D01*
X231904Y103330D01*
X238730Y103330D01*
X238730Y96504D01*
X236647Y96504D01*
G37*
G36*
X441270Y96504D02*
X441270Y103330D01*
X448096Y103330D01*
X448096Y101247D01*
X443353Y96504D01*
X441270Y96504D01*
G37*
G36*
X436647Y96504D02*
X431904Y101247D01*
X431904Y103330D01*
X438730Y103330D01*
X438730Y96504D01*
X436647Y96504D01*
G37*
G36*
X341270Y96504D02*
X341270Y103330D01*
X348096Y103330D01*
X348096Y101247D01*
X343353Y96504D01*
X341270Y96504D01*
G37*
G36*
X336647Y96504D02*
X331904Y101247D01*
X331904Y103330D01*
X338730Y103330D01*
X338730Y96504D01*
X336647Y96504D01*
G37*
G36*
X241270Y96504D02*
X241270Y103330D01*
X248096Y103330D01*
X248096Y101247D01*
X243353Y96504D01*
X241270Y96504D01*
G37*
G36*
X360404Y80804D02*
X353904Y87304D01*
X353904Y96496D01*
X360404Y102996D01*
X369596Y102996D01*
X376382Y96210D01*
X377045Y95771D01*
X377828Y95625D01*
X378605Y95796D01*
X379210Y96210D01*
X385996Y102996D01*
X395188Y102996D01*
X401382Y96802D01*
X402045Y96363D01*
X402828Y96217D01*
X403605Y96388D01*
X404210Y96802D01*
X410404Y102996D01*
X419596Y102996D01*
X426096Y96496D01*
X426096Y87304D01*
X419596Y80804D01*
X410404Y80804D01*
X404210Y86998D01*
X403547Y87437D01*
X402764Y87583D01*
X401987Y87412D01*
X401382Y86998D01*
X395188Y80804D01*
X385996Y80804D01*
X379210Y87590D01*
X378547Y88029D01*
X377764Y88175D01*
X376987Y88004D01*
X376382Y87590D01*
X369596Y80804D01*
X360404Y80804D01*
G37*
G36*
X96889Y15188D02*
X91410Y17457D01*
X87217Y21650D01*
X84948Y27129D01*
X84948Y52871D01*
X87217Y58350D01*
X91410Y62543D01*
X96889Y64812D01*
X102819Y64812D01*
X108298Y62543D01*
X112491Y58350D01*
X114760Y52871D01*
X114760Y27129D01*
X112491Y21650D01*
X108298Y17457D01*
X102819Y15188D01*
X96889Y15188D01*
G37*
G36*
X296889Y15188D02*
X291410Y17457D01*
X287217Y21650D01*
X284948Y27129D01*
X284948Y52871D01*
X287217Y58350D01*
X291410Y62543D01*
X296889Y64812D01*
X302819Y64812D01*
X308298Y62543D01*
X312491Y58350D01*
X314760Y52871D01*
X314760Y27129D01*
X312491Y21650D01*
X308298Y17457D01*
X302819Y15188D01*
X296889Y15188D01*
G37*
G36*
X196889Y15188D02*
X191410Y17457D01*
X187217Y21650D01*
X184948Y27129D01*
X184948Y52871D01*
X187217Y58350D01*
X191410Y62543D01*
X196889Y64812D01*
X202819Y64812D01*
X208298Y62543D01*
X212491Y58350D01*
X214760Y52871D01*
X214760Y27129D01*
X212491Y21650D01*
X208298Y17457D01*
X202819Y15188D01*
X196889Y15188D01*
G37*
G36*
X238240Y41270D02*
X238240Y52274D01*
X240053Y56650D01*
X243402Y59999D01*
X247778Y61812D01*
X248876Y61812D01*
X248876Y41270D01*
X238240Y41270D01*
G37*
G36*
X338240Y41270D02*
X338240Y52274D01*
X340053Y56650D01*
X343402Y59999D01*
X347778Y61812D01*
X348876Y61812D01*
X348876Y41270D01*
X338240Y41270D01*
G37*
G36*
X138240Y41270D02*
X138240Y52274D01*
X140053Y56650D01*
X143402Y59999D01*
X147778Y61812D01*
X148876Y61812D01*
X148876Y41270D01*
X138240Y41270D01*
G37*
G36*
X387948Y41270D02*
X387948Y52274D01*
X389761Y56650D01*
X393110Y59999D01*
X397486Y61812D01*
X398584Y61812D01*
X398584Y41270D01*
X387948Y41270D01*
G37*
G36*
X401124Y41270D02*
X401124Y61812D01*
X402222Y61812D01*
X406598Y59999D01*
X409947Y56650D01*
X411760Y52274D01*
X411760Y41270D01*
X401124Y41270D01*
G37*
G36*
X151416Y41270D02*
X151416Y61812D01*
X152514Y61812D01*
X156890Y59999D01*
X160239Y56650D01*
X162052Y52274D01*
X162052Y41270D01*
X151416Y41270D01*
G37*
G36*
X351416Y41270D02*
X351416Y61812D01*
X352514Y61812D01*
X356890Y59999D01*
X360239Y56650D01*
X362052Y52274D01*
X362052Y41270D01*
X351416Y41270D01*
G37*
G36*
X251416Y41270D02*
X251416Y61812D01*
X252514Y61812D01*
X256890Y59999D01*
X260239Y56650D01*
X262052Y52274D01*
X262052Y41270D01*
X251416Y41270D01*
G37*
G36*
X401124Y18188D02*
X401124Y38730D01*
X411760Y38730D01*
X411760Y27726D01*
X409947Y23350D01*
X406598Y20001D01*
X402222Y18188D01*
X401124Y18188D01*
G37*
G36*
X397486Y18188D02*
X393110Y20001D01*
X389761Y23350D01*
X387948Y27726D01*
X387948Y38730D01*
X398584Y38730D01*
X398584Y18188D01*
X397486Y18188D01*
G37*
G36*
X351416Y18188D02*
X351416Y38730D01*
X362052Y38730D01*
X362052Y27726D01*
X360239Y23350D01*
X356890Y20001D01*
X352514Y18188D01*
X351416Y18188D01*
G37*
G36*
X347778Y18188D02*
X343402Y20001D01*
X340053Y23350D01*
X338240Y27726D01*
X338240Y38730D01*
X348876Y38730D01*
X348876Y18188D01*
X347778Y18188D01*
G37*
G36*
X251416Y18188D02*
X251416Y38730D01*
X262052Y38730D01*
X262052Y27726D01*
X260239Y23350D01*
X256890Y20001D01*
X252514Y18188D01*
X251416Y18188D01*
G37*
G36*
X247778Y18188D02*
X243402Y20001D01*
X240053Y23350D01*
X238240Y27726D01*
X238240Y38730D01*
X248876Y38730D01*
X248876Y18188D01*
X247778Y18188D01*
G37*
G36*
X151416Y18188D02*
X151416Y38730D01*
X162052Y38730D01*
X162052Y27726D01*
X160239Y23350D01*
X156890Y20001D01*
X152514Y18188D01*
X151416Y18188D01*
G37*
G36*
X147778Y18188D02*
X143402Y20001D01*
X140053Y23350D01*
X138240Y27726D01*
X138240Y38730D01*
X148876Y38730D01*
X148876Y18188D01*
X147778Y18188D01*
G37*
%LPD*%
G36*
X643809Y210071D02*
X644459Y210531D01*
X644877Y211208D01*
X645000Y211900D01*
X645000Y308295D01*
X644842Y309075D01*
X644392Y309732D01*
X643721Y310161D01*
X642936Y310294D01*
X642162Y310111D01*
X641520Y309640D01*
X641152Y309060D01*
X641010Y308718D01*
X611682Y279389D01*
X611242Y278726D01*
X611096Y277975D01*
X611096Y272304D01*
X604596Y265804D01*
X595404Y265804D01*
X588914Y272294D01*
X588251Y272733D01*
X587468Y272879D01*
X586691Y272708D01*
X586086Y272294D01*
X579596Y265804D01*
X572086Y265804D01*
X571306Y265646D01*
X570650Y265196D01*
X570221Y264525D01*
X570087Y263740D01*
X570270Y262966D01*
X570672Y262390D01*
X572206Y260856D01*
X574398Y255564D01*
X574398Y249836D01*
X572206Y244544D01*
X569076Y241414D01*
X568636Y240751D01*
X568491Y239968D01*
X568661Y239191D01*
X569076Y238586D01*
X572206Y235456D01*
X574398Y230164D01*
X574398Y224436D01*
X572206Y219144D01*
X571476Y218414D01*
X571036Y217751D01*
X570891Y216968D01*
X571061Y216191D01*
X571522Y215541D01*
X572199Y215123D01*
X572890Y215000D01*
X634928Y215000D01*
X635735Y214942D01*
X636240Y214841D01*
X636750Y214681D01*
X637239Y214467D01*
X637703Y214203D01*
X638136Y213890D01*
X638573Y213498D01*
X641586Y210485D01*
X642249Y210046D01*
X643032Y209900D01*
X643809Y210071D01*
G37*
%LPC*%
G36*
X611904Y251670D02*
X611904Y253753D01*
X616647Y258496D01*
X618730Y258496D01*
X618730Y251670D01*
X611904Y251670D01*
G37*
G36*
X621270Y251670D02*
X621270Y258496D01*
X623353Y258496D01*
X628096Y253753D01*
X628096Y251670D01*
X621270Y251670D01*
G37*
G36*
X621270Y242304D02*
X621270Y249130D01*
X628096Y249130D01*
X628096Y247047D01*
X623353Y242304D01*
X621270Y242304D01*
G37*
G36*
X616647Y242304D02*
X611904Y247047D01*
X611904Y249130D01*
X618730Y249130D01*
X618730Y242304D01*
X616647Y242304D01*
G37*
%LPD*%
G36*
X573851Y105158D02*
X574507Y105609D01*
X574936Y106279D01*
X575070Y107064D01*
X574918Y107765D01*
X574519Y108730D01*
X585481Y108730D01*
X585082Y107765D01*
X584930Y106984D01*
X585094Y106205D01*
X585549Y105552D01*
X586223Y105129D01*
X586929Y105000D01*
X607101Y105000D01*
X607881Y105158D01*
X608515Y105586D01*
X614414Y111485D01*
X614854Y112149D01*
X615000Y112900D01*
X615000Y116045D01*
X614842Y116825D01*
X614392Y117481D01*
X613721Y117910D01*
X612936Y118044D01*
X612235Y117892D01*
X610105Y117010D01*
X596115Y117010D01*
X594278Y117771D01*
X592871Y119178D01*
X592110Y121015D01*
X592110Y137005D01*
X592871Y138842D01*
X594555Y140526D01*
X594994Y141189D01*
X595140Y141972D01*
X594969Y142749D01*
X594555Y143354D01*
X592752Y145157D01*
X591450Y148299D01*
X591450Y151701D01*
X592752Y154843D01*
X594494Y156586D01*
X594934Y157249D01*
X595080Y158032D01*
X594909Y158809D01*
X594448Y159459D01*
X593771Y159877D01*
X593080Y160000D01*
X567647Y160000D01*
X566867Y159842D01*
X566210Y159392D01*
X565781Y158721D01*
X565648Y157936D01*
X565831Y157162D01*
X566233Y156586D01*
X567684Y155134D01*
X569064Y151803D01*
X569064Y148197D01*
X567684Y144866D01*
X566540Y143721D01*
X566100Y143058D01*
X565954Y142307D01*
X565954Y140846D01*
X566112Y140065D01*
X566540Y139431D01*
X567129Y138842D01*
X567890Y137005D01*
X567890Y132510D01*
X568042Y131745D01*
X568152Y131480D01*
X568597Y130819D01*
X569264Y130385D01*
X570048Y130245D01*
X570824Y130422D01*
X571469Y130888D01*
X571882Y131569D01*
X572000Y132245D01*
X572000Y136838D01*
X573172Y138010D01*
X578730Y138010D01*
X578730Y120010D01*
X573172Y120010D01*
X572000Y121182D01*
X572000Y123655D01*
X571842Y124435D01*
X571392Y125092D01*
X570721Y125521D01*
X569936Y125654D01*
X569162Y125471D01*
X568520Y125000D01*
X568152Y124421D01*
X568042Y124155D01*
X567890Y123390D01*
X567890Y121015D01*
X567129Y119178D01*
X565722Y117771D01*
X563880Y117008D01*
X563110Y116852D01*
X562476Y116424D01*
X554466Y108414D01*
X554026Y107751D01*
X553880Y106968D01*
X554051Y106191D01*
X554511Y105541D01*
X555189Y105123D01*
X555880Y105000D01*
X573071Y105000D01*
X573851Y105158D01*
G37*
%LPC*%
G36*
X581270Y130280D02*
X581270Y138010D01*
X586828Y138010D01*
X588000Y136838D01*
X588000Y130280D01*
X581270Y130280D01*
G37*
G36*
X581270Y120010D02*
X581270Y127740D01*
X588000Y127740D01*
X588000Y121182D01*
X586828Y120010D01*
X581270Y120010D01*
G37*
G36*
X581270Y111270D02*
X581270Y115481D01*
X583144Y114705D01*
X584705Y113144D01*
X585481Y111270D01*
X581270Y111270D01*
G37*
G36*
X574519Y111270D02*
X575295Y113144D01*
X576856Y114705D01*
X578730Y115481D01*
X578730Y111270D01*
X574519Y111270D01*
G37*
%LPD*%
G36*
X569225Y20101D02*
X569642Y20386D01*
X569915Y20812D01*
X570000Y21270D01*
X570000Y69920D01*
X570009Y69991D01*
X570064Y70064D01*
X579943Y79943D01*
X580000Y79987D01*
X580090Y80000D01*
X619474Y80000D01*
X619969Y80101D01*
X620372Y80372D01*
X639628Y99628D01*
X639907Y100049D01*
X640000Y100526D01*
X640000Y204474D01*
X639899Y204969D01*
X639628Y205372D01*
X635372Y209628D01*
X634951Y209907D01*
X634474Y210000D01*
X456270Y210000D01*
X455775Y209899D01*
X455358Y209614D01*
X455085Y209188D01*
X455000Y208730D01*
X455000Y166270D01*
X455101Y165775D01*
X455386Y165358D01*
X455812Y165085D01*
X456270Y165000D01*
X614920Y165000D01*
X614991Y164991D01*
X615064Y164936D01*
X619943Y160057D01*
X619987Y160000D01*
X620000Y159910D01*
X620000Y110080D01*
X619991Y110009D01*
X619936Y109936D01*
X610057Y100057D01*
X610000Y100013D01*
X609910Y100000D01*
X550526Y100000D01*
X550031Y99899D01*
X549628Y99628D01*
X540372Y90372D01*
X540093Y89951D01*
X540000Y89474D01*
X540000Y21270D01*
X540101Y20775D01*
X540386Y20358D01*
X540812Y20085D01*
X541270Y20000D01*
X568730Y20000D01*
X569225Y20101D01*
G37*
D10*
X414349Y318905D02*
X414349Y327803D01*
X411383Y327803D02*
X417315Y327803D01*
X423391Y327803D02*
X426357Y327803D01*
X423391Y327803D02*
X421908Y326320D01*
X421908Y320388D01*
X423391Y318905D01*
X426357Y318905D01*
X427839Y320388D01*
X427839Y326320D01*
X426357Y327803D01*
X432432Y327803D02*
X432432Y318905D01*
X432432Y327803D02*
X436881Y327803D01*
X438364Y326320D01*
X438364Y323354D01*
X436881Y321871D01*
X432432Y321871D01*
D11*
X83700Y512300D03*
D12*
X109100Y512300D03*
X134500Y512300D03*
X159900Y512300D03*
X185300Y512300D03*
X210700Y512300D03*
X83700Y537700D03*
X109100Y537700D03*
X134500Y537700D03*
X159900Y537700D03*
X185300Y537700D03*
X210700Y537700D03*
X236100Y512300D03*
X236100Y537700D03*
X261500Y512300D03*
X286900Y512300D03*
X312300Y512300D03*
X337700Y512300D03*
X363100Y512300D03*
X388500Y512300D03*
X261500Y537700D03*
X286900Y537700D03*
X312300Y537700D03*
X337700Y537700D03*
X363100Y537700D03*
X388500Y537700D03*
X413900Y512300D03*
X413900Y537700D03*
X439300Y512300D03*
X464700Y512300D03*
X490100Y512300D03*
X515500Y512300D03*
X540900Y512300D03*
X566300Y512300D03*
X439300Y537700D03*
X464700Y537700D03*
X490100Y537700D03*
X515500Y537700D03*
X540900Y537700D03*
X566300Y537700D03*
D13*
X556890Y129010D03*
X580000Y129010D03*
X603110Y129010D03*
D14*
X580000Y190990D03*
D13*
X466890Y129010D03*
X490000Y129010D03*
X513110Y129010D03*
D14*
X490000Y190990D03*
D15*
X560000Y227300D03*
X560000Y252700D03*
X510000Y227300D03*
X510000Y252700D03*
D16*
X168100Y350000D03*
X91900Y350000D03*
D17*
X104600Y450000D03*
X155400Y450000D03*
D16*
X155400Y400000D03*
X104600Y400000D03*
X168100Y425000D03*
X91900Y425000D03*
D15*
X200000Y227300D03*
X200000Y252700D03*
D16*
X168100Y375000D03*
X91900Y375000D03*
D18*
X284266Y368100D03*
X345734Y368100D03*
X284266Y355400D03*
X284266Y342700D03*
X345734Y355400D03*
X345734Y342700D03*
X284266Y330000D03*
X345734Y330000D03*
X284266Y317300D03*
X284266Y304600D03*
X345734Y317300D03*
X345734Y304600D03*
X284266Y291900D03*
X345734Y291900D03*
D16*
X168100Y250000D03*
X91900Y250000D03*
X154968Y325432D03*
X104168Y325432D03*
X168100Y300000D03*
X91900Y300000D03*
D15*
X250000Y227300D03*
X250000Y252700D03*
D16*
X168100Y275000D03*
X91900Y275000D03*
X168100Y200000D03*
X91900Y200000D03*
X155400Y225000D03*
X104600Y225000D03*
D19*
X115000Y168100D03*
X115000Y91900D03*
D15*
X300000Y227300D03*
X300000Y252700D03*
D19*
X140000Y168100D03*
X140000Y91900D03*
X165000Y168100D03*
X165000Y91900D03*
X240000Y155400D03*
X240000Y104600D03*
X215000Y168100D03*
X215000Y91900D03*
D15*
X350000Y227300D03*
X350000Y252700D03*
D19*
X190000Y168100D03*
X190000Y91900D03*
X265000Y168100D03*
X265000Y91900D03*
X340000Y155400D03*
X340000Y104600D03*
X315000Y168663D03*
X315000Y92463D03*
D15*
X400000Y227300D03*
X400000Y252700D03*
D19*
X290000Y168100D03*
X290000Y91900D03*
X365000Y168100D03*
X365000Y91900D03*
X440000Y155400D03*
X440000Y104600D03*
X415000Y168100D03*
X415000Y91900D03*
D15*
X450000Y227300D03*
X450000Y252700D03*
D19*
X390592Y168100D03*
X390592Y91900D03*
D20*
X49906Y460038D02*
X30094Y460038D01*
X30094Y410000D02*
X49906Y410000D01*
X49906Y359962D02*
X30094Y359962D01*
X30094Y310038D02*
X49906Y310038D01*
X49906Y260000D02*
X30094Y260000D01*
X30094Y209962D02*
X49906Y209962D01*
X49906Y160146D02*
X30094Y160146D01*
X30094Y109854D02*
X49906Y109854D01*
X99854Y49906D02*
X99854Y30094D01*
X150146Y30094D02*
X150146Y49906D01*
X199854Y49906D02*
X199854Y30094D01*
X250146Y30094D02*
X250146Y49906D01*
X299854Y49906D02*
X299854Y30094D01*
X350146Y30094D02*
X350146Y49906D01*
D16*
X168100Y475000D03*
X91900Y475000D03*
D21*
X620000Y199600D03*
X620000Y250400D03*
X600000Y276900D03*
X600000Y353100D03*
X575000Y276900D03*
X575000Y353100D03*
X550000Y276900D03*
X550000Y353100D03*
X525000Y276900D03*
X525000Y353100D03*
D20*
X399854Y49906D02*
X399854Y30094D01*
X450146Y30094D02*
X450146Y49906D01*
X499854Y49906D02*
X499854Y30094D01*
X550146Y30094D02*
X550146Y49906D01*
D16*
X340400Y395000D03*
X289600Y395000D03*
D22*
X472000Y449050D03*
X472000Y436350D03*
X472000Y423650D03*
X472000Y410950D03*
X528000Y410950D03*
X528000Y423650D03*
X528000Y436350D03*
X528000Y449050D03*
D21*
X560000Y391900D03*
X560000Y468100D03*
D23*
X605000Y390000D03*
X605000Y425000D03*
X605000Y460000D03*
D19*
X440000Y455400D03*
X440000Y404600D03*
D16*
X538100Y470000D03*
X461900Y470000D03*
X536518Y388418D03*
X460318Y388418D03*
D19*
X500000Y353100D03*
X500000Y276900D03*
D24*
X490000Y129010D02*
X490000Y110000D01*
D25*
X490000Y110000D03*
D24*
X580000Y110000D02*
X580000Y129010D01*
D25*
X580000Y110000D03*
D26*
X296900Y291900D02*
X284266Y291900D01*
X296900Y291900D02*
X305000Y300000D01*
X305000Y379600D01*
X289600Y395000D01*
D27*
X440000Y404600D02*
X440400Y404600D01*
X445000Y400000D01*
X457622Y400000D01*
X457718Y400096D01*
X500096Y400096D02*
X510950Y410950D01*
X500096Y400096D02*
X457718Y400096D01*
X510950Y410950D02*
X528000Y410950D01*
X442900Y455400D02*
X440000Y455400D01*
X442900Y455400D02*
X445000Y457500D01*
X502500Y457500D01*
X510950Y449050D01*
X528000Y449050D01*
D28*
X454600Y470000D02*
X440000Y455400D01*
X454600Y470000D02*
X461900Y470000D01*
D29*
X326500Y454500D03*
D30*
X349500Y454500D01*
X350000Y455000D01*
D29*
X350000Y455000D03*
D31*
X109100Y537700D02*
X83700Y537700D01*
D28*
X353100Y368100D02*
X365000Y380000D01*
X340000Y394167D02*
X340000Y395000D01*
X340000Y394167D02*
X358333Y394167D01*
X365000Y387500D01*
X365000Y380000D01*
D30*
X168100Y475000D02*
X132500Y475000D01*
D28*
X345734Y368100D02*
X353100Y368100D01*
X340400Y395000D02*
X340000Y395000D01*
D30*
X185000Y458100D02*
X168100Y475000D01*
X168100Y350000D02*
X175000Y350000D01*
X185000Y360000D01*
X185000Y458100D01*
X168100Y250000D02*
X190800Y227300D01*
X200000Y227300D01*
X300000Y227300D02*
X350000Y227300D01*
X132500Y475000D02*
X121760Y485740D01*
X121760Y525040D02*
X109100Y537700D01*
X121760Y525040D02*
X121760Y485740D01*
D24*
X620000Y200000D02*
X620000Y199600D01*
D31*
X580000Y190990D02*
X490000Y190990D01*
X580000Y190990D02*
X620000Y190990D01*
X620000Y200000D01*
X550146Y90000D02*
X550146Y40000D01*
X550146Y90000D02*
X615000Y90000D01*
X630000Y105000D01*
X630000Y180990D01*
X620000Y190990D01*
D27*
X172600Y525000D02*
X159900Y537700D01*
X172600Y525000D02*
X190000Y525000D01*
X197500Y532500D01*
X454050Y410950D02*
X472000Y410950D01*
X454050Y410950D02*
X450000Y415000D01*
X415000Y415000D01*
X399500Y470500D02*
X375000Y495000D01*
X399500Y430500D02*
X415000Y415000D01*
X399500Y430500D02*
X399500Y470500D01*
X375000Y495000D02*
X375000Y542233D01*
X367913Y549320D01*
X205887Y549320D01*
X197500Y540933D01*
X197500Y532500D01*
X455050Y449050D02*
X472000Y449050D01*
X455050Y449050D02*
X446000Y440000D01*
X415000Y440000D01*
X405000Y450000D01*
X405000Y485000D01*
X393180Y554820D02*
X202420Y554820D01*
X185300Y537700D01*
X393180Y554820D02*
X400280Y547720D01*
X400280Y489720D02*
X405000Y485000D01*
X400280Y489720D02*
X400280Y547720D01*
D32*
X556890Y129010D02*
X556890Y126890D01*
X499854Y69854D01*
X499854Y40000D01*
D24*
X556890Y129010D02*
X556890Y146890D01*
X560000Y150000D01*
D25*
X560000Y150000D03*
D32*
X466890Y129010D02*
X466890Y76890D01*
X450146Y60146D01*
X450146Y40000D01*
D24*
X466890Y129010D02*
X466890Y146890D01*
X470000Y150000D01*
D25*
X470000Y150000D03*
D26*
X560000Y266900D02*
X550000Y276900D01*
X560000Y266900D02*
X560000Y252700D01*
X525000Y267700D02*
X525000Y276900D01*
X525000Y267700D02*
X510000Y252700D01*
D28*
X284266Y368100D02*
X266900Y368100D01*
X265000Y370000D01*
D25*
X265000Y370000D03*
D28*
X267300Y342700D02*
X284266Y342700D01*
X267300Y342700D02*
X265000Y345000D01*
D25*
X265000Y345000D03*
D28*
X267700Y317300D02*
X284266Y317300D01*
X267700Y317300D02*
X265000Y320000D01*
D25*
X265000Y320000D03*
D30*
X155400Y225000D02*
X115000Y184600D01*
X115000Y168100D01*
D28*
X345734Y355400D02*
X360400Y355400D01*
X365000Y360000D01*
D25*
X365000Y360000D03*
D28*
X370000Y330000D02*
X345734Y330000D01*
D25*
X370000Y330000D03*
D28*
X364600Y304600D02*
X345734Y304600D01*
X364600Y304600D02*
X365000Y305000D01*
D25*
X365000Y305000D03*
D30*
X89854Y160146D02*
X40000Y160146D01*
X89854Y160146D02*
X90000Y160000D01*
X90000Y100000D01*
X98100Y91900D01*
X115000Y91900D01*
X90000Y198100D02*
X91900Y200000D01*
X90000Y198100D02*
X90000Y160000D01*
D31*
X115000Y91900D02*
X140000Y91900D01*
D28*
X513110Y129010D02*
X513110Y143110D01*
X520000Y150000D01*
D25*
X520000Y150000D03*
D27*
X517300Y537700D02*
X515500Y537700D01*
X517300Y537700D02*
X528000Y527000D01*
X528000Y501000D01*
X544000Y485000D01*
X615000Y485000D01*
X630000Y470000D01*
X630000Y330000D01*
X600000Y300000D01*
X585000Y300000D01*
X575000Y290000D01*
X575000Y276900D01*
D28*
X284266Y355400D02*
X259600Y355400D01*
X255000Y360000D01*
X255000Y465000D01*
D25*
X255000Y465000D03*
X220000Y465000D03*
D28*
X210700Y474300D01*
X210700Y512300D01*
X456350Y423650D02*
X472000Y423650D01*
X456350Y423650D02*
X455000Y425000D01*
X455000Y430000D01*
X455000Y435000D01*
X456350Y436350D02*
X472000Y436350D01*
X456350Y436350D02*
X455000Y435000D01*
X485000Y390000D02*
X500000Y375000D01*
X500000Y353100D01*
D25*
X485000Y390000D03*
X455000Y430000D03*
D27*
X223000Y525400D02*
X210700Y537700D01*
X223000Y525400D02*
X223000Y497000D01*
X225000Y495000D01*
D25*
X225000Y495000D03*
D27*
X325000Y440000D02*
X350000Y440000D01*
D25*
X350000Y440000D03*
X425000Y430000D03*
D27*
X455000Y430000D01*
D25*
X324633Y439633D03*
D27*
X325000Y440000D01*
D28*
X284266Y304600D02*
X250400Y304600D01*
X235000Y320000D01*
X235000Y480000D01*
D25*
X235000Y480000D03*
X265000Y480000D03*
D28*
X261500Y483500D01*
X261500Y512300D01*
X345734Y317300D02*
X372300Y317300D01*
X300000Y500000D02*
X300000Y525000D01*
X287300Y537700D01*
X286900Y537700D01*
X383548Y328548D02*
X372300Y317300D01*
X383548Y328548D02*
X383548Y466470D01*
X364910Y485108D01*
X314892Y485108D01*
X300000Y500000D01*
X345734Y291900D02*
X381900Y291900D01*
X389096Y299096D01*
X389096Y468768D01*
X325000Y525000D02*
X337700Y537700D01*
X342877Y490656D02*
X367208Y490656D01*
X342877Y490656D02*
X325000Y508533D01*
X325000Y525000D01*
X367208Y490656D02*
X389096Y468768D01*
X540900Y509100D02*
X540900Y512300D01*
X603110Y146890D02*
X603110Y129010D01*
X603110Y146890D02*
X600000Y150000D01*
D25*
X600000Y150000D03*
D27*
X559500Y490500D02*
X540900Y509100D01*
X559500Y490500D02*
X619500Y490500D01*
X635500Y312400D02*
X600000Y276900D01*
X635500Y312400D02*
X635500Y474500D01*
X619500Y490500D01*
D28*
X284266Y330000D02*
X255000Y330000D01*
X245000Y340000D01*
X245000Y503400D01*
X236100Y512300D01*
X275000Y524200D02*
X275000Y490000D01*
X275000Y524200D02*
X261500Y537700D01*
X345734Y342700D02*
X367700Y342700D01*
X378000Y353000D02*
X378000Y464172D01*
X378000Y353000D02*
X367700Y342700D01*
X378000Y464172D02*
X362612Y479560D01*
X285440Y479560D02*
X275000Y490000D01*
X285440Y479560D02*
X362612Y479560D01*
D30*
X390592Y193292D02*
X390592Y168100D01*
X390592Y193292D02*
X450000Y252700D01*
X371199Y189594D02*
X311494Y189594D01*
X290000Y168100D01*
X381562Y199956D02*
X381562Y237866D01*
X381562Y199956D02*
X371199Y189594D01*
X396396Y252700D02*
X400000Y252700D01*
X396396Y252700D02*
X381562Y237866D01*
X218074Y196174D02*
X190000Y168100D01*
X350000Y252700D02*
X350000Y255000D01*
X299869Y196174D02*
X218074Y196174D01*
D26*
X299869Y196174D02*
X301174Y196174D01*
X315000Y210000D01*
X365000Y210000D01*
X370000Y215000D01*
X370000Y235000D01*
X350000Y255000D01*
D30*
X140000Y175000D02*
X140000Y168100D01*
X140000Y175000D02*
X150000Y185000D01*
X181138Y185000D01*
X203000Y206862D01*
X289000Y253000D02*
X300000Y252700D01*
X289000Y253000D02*
X275000Y239000D01*
X275000Y220000D01*
X261862Y206862D01*
X203000Y206862D01*
D26*
X250000Y252700D02*
X227700Y275000D01*
X168100Y275000D01*
D25*
X200000Y285000D03*
D26*
X200000Y375000D01*
D25*
X200000Y375000D03*
D30*
X528000Y436350D02*
X553650Y436350D01*
X560000Y430000D01*
X560000Y391900D01*
D33*
X545000Y425000D03*
D30*
X543650Y423650D02*
X528000Y423650D01*
X543650Y423650D02*
X545000Y425000D01*
M02*
