G04 EAGLE Gerber RS-274X export*
G75*
%MOMM*%
%FSLAX34Y34*%
%LPD*%
%INSoldermask Bottom*%
%IPPOS*%
%AMOC8*
5,1,8,0,0,1.08239X$1,22.5*%
G01*
G04 Define Apertures*
%ADD10C,2.800000*%
%ADD11R,1.524000X1.524000*%
%ADD12P,1.649562X8X22.500000*%
%ADD13C,1.879600*%
%ADD14P,1.319650X8X202.500000*%
%ADD15P,1.319650X8X22.500000*%
%ADD16P,1.319650X8X292.500000*%
%ADD17C,1.981200*%
%ADD18P,1.319650X8X112.500000*%
%ADD19C,2.000000*%
%ADD20C,0.910000*%
D10*
X35000Y35000D03*
X35000Y525000D03*
X615000Y525000D03*
X615000Y35000D03*
D11*
X83700Y512300D03*
D12*
X109100Y512300D03*
X134500Y512300D03*
X159900Y512300D03*
X185300Y512300D03*
X210700Y512300D03*
X83700Y537700D03*
X109100Y537700D03*
X134500Y537700D03*
X159900Y537700D03*
X185300Y537700D03*
X210700Y537700D03*
X236100Y512300D03*
X236100Y537700D03*
X261500Y512300D03*
X286900Y512300D03*
X312300Y512300D03*
X337700Y512300D03*
X363100Y512300D03*
X388500Y512300D03*
X261500Y537700D03*
X286900Y537700D03*
X312300Y537700D03*
X337700Y537700D03*
X363100Y537700D03*
X388500Y537700D03*
X413900Y512300D03*
X413900Y537700D03*
X439300Y512300D03*
X464700Y512300D03*
X490100Y512300D03*
X515500Y512300D03*
X540900Y512300D03*
X566300Y512300D03*
X439300Y537700D03*
X464700Y537700D03*
X490100Y537700D03*
X515500Y537700D03*
X540900Y537700D03*
X566300Y537700D03*
D13*
X560000Y227300D03*
X560000Y252700D03*
X510000Y227300D03*
X510000Y252700D03*
D14*
X168100Y350000D03*
X91900Y350000D03*
D15*
X104600Y450000D03*
X155400Y450000D03*
D14*
X155400Y400000D03*
X104600Y400000D03*
X168100Y425000D03*
X91900Y425000D03*
D13*
X200000Y227300D03*
X200000Y252700D03*
D14*
X168100Y375000D03*
X91900Y375000D03*
X168100Y250000D03*
X91900Y250000D03*
X154968Y325432D03*
X104168Y325432D03*
X168100Y300000D03*
X91900Y300000D03*
D13*
X250000Y227300D03*
X250000Y252700D03*
D14*
X168100Y275000D03*
X91900Y275000D03*
X168100Y200000D03*
X91900Y200000D03*
X155400Y225000D03*
X104600Y225000D03*
D16*
X115000Y168100D03*
X115000Y91900D03*
D13*
X300000Y227300D03*
X300000Y252700D03*
D16*
X140000Y168100D03*
X140000Y91900D03*
X165000Y168100D03*
X165000Y91900D03*
X240000Y155400D03*
X240000Y104600D03*
X215000Y168100D03*
X215000Y91900D03*
D13*
X350000Y227300D03*
X350000Y252700D03*
D16*
X190000Y168100D03*
X190000Y91900D03*
X265000Y168100D03*
X265000Y91900D03*
X340000Y155400D03*
X340000Y104600D03*
X315000Y168663D03*
X315000Y92463D03*
D13*
X400000Y227300D03*
X400000Y252700D03*
D16*
X290000Y168100D03*
X290000Y91900D03*
X365000Y168100D03*
X365000Y91900D03*
X440000Y155400D03*
X440000Y104600D03*
X415000Y168100D03*
X415000Y91900D03*
D13*
X450000Y227300D03*
X450000Y252700D03*
D16*
X390592Y168100D03*
X390592Y91900D03*
D17*
X49906Y460038D02*
X30094Y460038D01*
X30094Y410000D02*
X49906Y410000D01*
X49906Y359962D02*
X30094Y359962D01*
X30094Y310038D02*
X49906Y310038D01*
X49906Y260000D02*
X30094Y260000D01*
X30094Y209962D02*
X49906Y209962D01*
X49906Y160146D02*
X30094Y160146D01*
X30094Y109854D02*
X49906Y109854D01*
X99854Y49906D02*
X99854Y30094D01*
X150146Y30094D02*
X150146Y49906D01*
X199854Y49906D02*
X199854Y30094D01*
X250146Y30094D02*
X250146Y49906D01*
X299854Y49906D02*
X299854Y30094D01*
X350146Y30094D02*
X350146Y49906D01*
D14*
X168100Y475000D03*
X91900Y475000D03*
D18*
X620000Y199600D03*
X620000Y250400D03*
X600000Y276900D03*
X600000Y353100D03*
X575000Y276900D03*
X575000Y353100D03*
X550000Y276900D03*
X550000Y353100D03*
X525000Y276900D03*
X525000Y353100D03*
D17*
X399854Y49906D02*
X399854Y30094D01*
X450146Y30094D02*
X450146Y49906D01*
X499854Y49906D02*
X499854Y30094D01*
X550146Y30094D02*
X550146Y49906D01*
D14*
X340400Y395000D03*
X289600Y395000D03*
D18*
X560000Y391900D03*
X560000Y468100D03*
D19*
X605000Y390000D03*
X605000Y425000D03*
X605000Y460000D03*
D16*
X440000Y455400D03*
X440000Y404600D03*
D14*
X538100Y470000D03*
X461900Y470000D03*
X536518Y388418D03*
X460318Y388418D03*
D16*
X500000Y353100D03*
X500000Y276900D03*
D20*
X326500Y454500D03*
X350000Y455000D03*
M02*
