M48
;GenerationSoftware,Autodesk,EAGLE,9.7.0*%
;CreationDate,2021-05-17T19:35:12Z*%
FMAT,2
ICI,OFF
METRIC,TZ,000.000
T9C0.350
T8C0.450
T7C0.550
T6C0.813
T5C1.016
T4C1.200
T3C1.321
T2C2.800
%
G90
M71
T2
X3500Y3500
X3500Y52500
X61500Y52500
X61500Y3500
T3
X19985Y4000
X4000Y31004
X4000Y35996
X4000Y41000
X55015Y4000
X49985Y4000
X45015Y4000
X39985Y4000
X35015Y4000
X29985Y4000
X25015Y4000
X15015Y4000
X9985Y4000
X4000Y10985
X4000Y16015
X4000Y20996
X4000Y26000
X4000Y46004
T4
X60500Y46000
X60500Y42500
X60500Y39000
T5
X46470Y53770
X49010Y53770
X51550Y53770
X54090Y53770
X23610Y53770
X56630Y53770
X8370Y51230
X10910Y51230
X13450Y51230
X15990Y51230
X18530Y51230
X21070Y51230
X8370Y53770
X10910Y53770
X13450Y53770
X15990Y53770
X18530Y53770
X21070Y53770
X23610Y51230
X43930Y53770
X26150Y51230
X28690Y51230
X31230Y51230
X33770Y51230
X36310Y51230
X38850Y51230
X26150Y53770
X28690Y53770
X31230Y53770
X33770Y53770
X36310Y53770
X38850Y53770
X41390Y51230
X41390Y53770
X43930Y51230
X46470Y51230
X49010Y51230
X51550Y51230
X54090Y51230
X56630Y51230
T6
X46190Y47000
X53652Y38842
X46032Y38842
X50000Y35310
X50000Y27690
X16810Y30000
X56000Y22730
X56000Y25270
X51000Y22730
X51000Y25270
X16810Y35000
X9190Y35000
X10460Y45000
X15540Y45000
X15540Y40000
X10460Y40000
X16810Y42500
X9190Y42500
X20000Y22730
X20000Y25270
X16810Y37500
X9190Y37500
X16810Y25000
X9190Y25000
X15497Y32543
X10417Y32543
X55000Y27690
X9190Y30000
X25000Y22730
X25000Y25270
X16810Y27500
X9190Y27500
X16810Y20000
X9190Y20000
X15540Y22500
X10460Y22500
X11500Y16810
X11500Y9190
X30000Y22730
X30000Y25270
X14000Y16810
X14000Y9190
X16500Y16810
X16500Y9190
X24000Y15540
X24000Y10460
X21500Y16810
X21500Y9190
X35000Y22730
X35000Y25270
X19000Y16810
X19000Y9190
X26500Y16810
X26500Y9190
X34000Y15540
X34000Y10460
X31500Y16866
X31500Y9246
X40000Y22730
X40000Y25270
X29000Y16810
X29000Y9190
X36500Y16810
X36500Y9190
X44000Y15540
X44000Y10460
X41500Y16810
X41500Y9190
X45000Y22730
X45000Y25270
X39059Y16810
X39059Y9190
X16810Y47500
X9190Y47500
X62000Y19960
X62000Y25040
X60000Y27690
X60000Y35310
X57500Y27690
X57500Y35310
X55000Y35310
X52500Y27690
X52500Y35310
X34040Y39500
X28960Y39500
X56000Y39190
X56000Y46810
X44000Y45540
X44000Y40460
X53810Y47000
T7
X32650Y45450
X35000Y45500
T8
X54500Y42500
T9
X58000Y11000
X56000Y15000
X47000Y15000
X35000Y44000
X22500Y49500
X45500Y43000
X52000Y15000
X36500Y30500
X37000Y33000
X36500Y36000
X48500Y39000
X22000Y46500
X25500Y46500
X26500Y48000
X26500Y32000
X26500Y34500
X26500Y37000
X20000Y37500
X20000Y28500
X60000Y15000
X23500Y48000
X32463Y43963
X42500Y43000
X49000Y11000
M30